<?xml version="1.0" encoding="UTF-8"?>
<svg version="1.1" xmlns="http://www.w3.org/2000/svg" width="500" height="500">
<path d="M0 0 C165 0 330 0 500 0 C500 165 500 330 500 500 C335 500 170 500 0 500 C0 335 0 170 0 0 Z " fill="#FBE0B9" transform="translate(0,0)"/>
<path d="M0 0 C4.64982026 2.11355466 4.64982026 2.11355466 5.80859375 5.046875 C6.85197843 7.25477193 6.85197843 7.25477193 9.42578125 7.6875 C10.37839844 7.790625 11.33101563 7.89375 12.3125 8 C17.01581185 8.72971853 19.76524845 9.2895497 23 13 C27.66471844 19.62051738 28.78934867 25.11574137 28.625 33.125 C28.64433594 34.07503906 28.66367187 35.02507812 28.68359375 36.00390625 C28.6391148 42.41777119 27.49278301 46.35928592 23 51 C18.37345552 55.42243222 13.70999967 56.1805008 7.54199219 56.04321289 C6.0353785 55.97372378 4.52989158 55.8696832 3.02832031 55.72827148 C-1.03400964 55.43116152 -1.03400964 55.43116152 -4.49072266 57.27880859 C-5.70993592 58.81454392 -6.85743204 60.40641837 -8 62 C-9.9921875 63.171875 -9.9921875 63.171875 -11.875 63.75 C-12.56078125 63.97558594 -13.2465625 64.20117188 -13.953125 64.43359375 C-15.82834842 64.95250099 -17.72641146 65.38695429 -19.625 65.8125 C-23.21863202 67.07692608 -24.75069006 68.66686295 -27.296875 71.4140625 C-35.12340181 78.70206683 -47.19984413 80.79255071 -57.5 81.375 C-61.03845537 81.66559778 -61.80646325 81.84247009 -64.6875 84.1875 C-65.450625 85.115625 -66.21375 86.04375 -67 87 C-70.69241973 90.51167191 -74.03324533 93.49492283 -79 95 C-78.80664062 94.443125 -78.61328125 93.88625 -78.4140625 93.3125 C-76.68625575 88.24882873 -75.2306933 83.20677935 -74 78 C-74.556875 77.86464844 -75.11375 77.72929687 -75.6875 77.58984375 C-83.895134 75.27451457 -90.36563458 70.20901287 -95 63 C-97.83381145 56.97815066 -98.88521238 51.47179615 -97 45 C-92.49664499 35.38706912 -84.49999451 28.84407927 -74.625 25.25 C-70.47297213 23.96467659 -66.3933987 23.49534076 -62.06640625 23.2109375 C-59.93889108 23.11697514 -59.93889108 23.11697514 -58 22 C-57.731875 20.7625 -57.46375 19.525 -57.1875 18.25 C-55.68534455 11.76762149 -50.81488448 8.70928393 -45.6484375 5.015625 C-40.20313072 1.66069665 -32.41554542 2.32998888 -26.3515625 3.51953125 C-24.87167494 3.90056542 -23.39843588 4.30957081 -21.9375 4.7578125 C-19.38956383 5.07630452 -18.21692999 4.22040898 -16 3 C-14.824375 2.835 -13.64875 2.67 -12.4375 2.5 C-7.53117018 1.78635203 -5.21490099 -0.5214901 0 0 Z " fill="#88BAD5" transform="translate(286,174)"/>
<path d="M0 0 C4.64982026 2.11355466 4.64982026 2.11355466 5.80859375 5.046875 C6.85197843 7.25477193 6.85197843 7.25477193 9.42578125 7.6875 C10.37839844 7.790625 11.33101563 7.89375 12.3125 8 C17.01581185 8.72971853 19.76524845 9.2895497 23 13 C27.66471844 19.62051738 28.78934867 25.11574137 28.625 33.125 C28.64433594 34.07503906 28.66367187 35.02507812 28.68359375 36.00390625 C28.6375963 42.63673867 27.45020049 46.05095697 23 51 C19.79619983 53.13586678 18.98060033 53.23132175 15.3125 53.125 C14.50425781 53.10695312 13.69601562 53.08890625 12.86328125 53.0703125 C12.24839844 53.04710937 11.63351562 53.02390625 11 53 C11 53.66 11 54.32 11 55 C4.91483527 55.22038826 -0.16411024 54.98420252 -6 53 C-7.33130115 52.65864073 -8.66358148 52.32074044 -10 52 C-9.125 46.25 -9.125 46.25 -8 44 C-7.93003986 42.29297265 -7.91559846 40.58331997 -7.9375 38.875 C-7.94652344 37.96492188 -7.95554687 37.05484375 -7.96484375 36.1171875 C-7.97644531 35.41851562 -7.98804688 34.71984375 -8 34 C-8.63679688 33.71898437 -9.27359375 33.43796875 -9.9296875 33.1484375 C-12 32 -12 32 -13.125 29.625 C-16.08570421 25.48001411 -20.18969858 24.34958356 -25 23 C-29.0830248 22.53583591 -33.0840656 22.57187411 -37.1875 22.6875 C-38.22841797 22.69716797 -39.26933594 22.70683594 -40.34179688 22.71679688 C-45.64829736 22.79428863 -50.77076012 23.0902454 -56 24 C-56.7807571 15.06466877 -56.7807571 15.06466877 -53.9375 11.1875 C-52.968125 10.465625 -51.99875 9.74375 -51 9 C-50.41089844 8.54753906 -49.82179687 8.09507812 -49.21484375 7.62890625 C-42.6398118 2.70112222 -37.11071425 2.54716856 -29 3 C-26.5913127 3.47250061 -24.28294299 4.03818795 -21.9375 4.7578125 C-19.38956383 5.07630452 -18.21692999 4.22040898 -16 3 C-14.824375 2.835 -13.64875 2.67 -12.4375 2.5 C-7.53117018 1.78635203 -5.21490099 -0.5214901 0 0 Z " fill="#88B9D5" transform="translate(286,174)"/>
<path d="M0 0 C1.29550781 0.00128906 2.59101563 0.00257813 3.92578125 0.00390625 C8.61415042 0.54431017 11.94372291 1.98435242 15.5625 5 C16.6875 6.4375 16.6875 6.4375 16.6875 8.4375 C19.69134054 7.7420656 19.69134054 7.7420656 22.6875 6.4375 C23.43026031 4.46669843 23.43026031 4.46669843 23.6875 2.4375 C27.33088573 0.00857618 28.74807099 0.25928812 32.890625 0.88671875 C34.6875 1.4375 34.6875 1.4375 36 3.375 C36.3403125 4.3959375 36.3403125 4.3959375 36.6875 5.4375 C37.6775 6.0975 38.6675 6.7575 39.6875 7.4375 C37.7075 8.7575 35.7275 10.0775 33.6875 11.4375 C34.1825 12.4275 34.1825 12.4275 34.6875 13.4375 C34.92102458 17.57866926 34.9158483 21.72140423 34.92773438 25.86865234 C34.93746351 27.9297689 34.96849856 29.98989781 35 32.05078125 C35.00773437 33.99017578 35.00773437 33.99017578 35.015625 35.96875 C35.0249707 37.16048828 35.03431641 38.35222656 35.04394531 39.58007812 C34.92631836 40.52302734 34.80869141 41.46597656 34.6875 42.4375 C31.2522952 44.72763653 29.702169 44.61592973 25.6875 44.4375 C23.48350832 39.88258386 23.09903737 35.40843824 22.6875 30.4375 C22.0275 30.4375 21.3675 30.4375 20.6875 30.4375 C20.666875 31.489375 20.64625 32.54125 20.625 33.625 C19.50474447 38.18070581 18.25580532 39.06382296 14.4765625 41.4921875 C11.33475445 43.15226948 8.76217343 43.56522794 5.2734375 43.5703125 C4.00886719 43.57224609 4.00886719 43.57224609 2.71875 43.57421875 C1.8421875 43.57035156 0.965625 43.56648438 0.0625 43.5625 C-0.82179687 43.56636719 -1.70609375 43.57023437 -2.6171875 43.57421875 C-3.45765625 43.57292969 -4.298125 43.57164062 -5.1640625 43.5703125 C-5.93572754 43.56918457 -6.70739258 43.56805664 -7.50244141 43.56689453 C-9.3125 43.4375 -9.3125 43.4375 -10.3125 42.4375 C-10.43840948 39.67264225 -10.50117389 36.93414103 -10.515625 34.16796875 C-10.52132507 33.33542068 -10.52702515 32.50287262 -10.53289795 31.64509583 C-10.54236363 29.87888872 -10.54888813 28.11266383 -10.55273438 26.34643555 C-10.56242228 23.64665723 -10.59342286 20.94764572 -10.625 18.24804688 C-10.63153158 16.5338587 -10.63678144 14.81966506 -10.640625 13.10546875 C-10.6529718 12.29804733 -10.6653186 11.49062592 -10.67803955 10.65873718 C-10.66495253 7.35652629 -10.54468578 4.88240377 -9.00219727 1.92675781 C-6.23770233 -0.50980036 -3.58716598 -0.05322205 0 0 Z " fill="#8EBAD1" transform="translate(153.3125,283.5625)"/>
<path d="M0 0 C1.04736328 -0.02900391 2.09472656 -0.05800781 3.17382812 -0.08789062 C10.21464372 -0.14477726 16.28807922 0.67588757 22.4375 4.3125 C26.50211877 8.42067246 28.56806039 12.86203905 28.6875 18.625 C28.57980195 25.28073956 25.73580057 29.30397181 21.328125 34.015625 C15.08280748 38.29960314 7.25521836 37.71165768 0 37.75 C-1.09376953 37.78287109 -2.18753906 37.81574219 -3.31445312 37.84960938 C-10.31429438 37.89596594 -15.24252713 37.07225469 -20.5625 32.3125 C-24.5101765 27.25137628 -25.98880523 23.11876347 -25.90625 16.79296875 C-25.21147273 11.77951915 -22.74953276 7.29723223 -19 3.89453125 C-12.93498708 -0.3054902 -7.08157661 0.06372145 0 0 Z " fill="#F9E0BB" transform="translate(248.5625,195.6875)"/>
<path d="M0 0 C4.45811508 1.63529112 6.6211121 4.36363117 8.6640625 8.53125 C9.25921061 11.70537326 9.33927409 13.50791894 7.53515625 16.2421875 C6.31048801 17.72853699 4.99226157 19.13664098 3.6640625 20.53125 C4.6540625 21.211875 5.6440625 21.8925 6.6640625 22.59375 C9.42997154 24.88997637 9.62990814 25.2879002 10.1640625 29.09375 C9.72702469 32.09838496 9.28120087 34.0044713 7.6640625 36.53125 C7.0040625 36.53125 6.3440625 36.53125 5.6640625 36.53125 C5.6640625 37.19125 5.6640625 37.85125 5.6640625 38.53125 C0.3526465 41.1625937 -3.75067921 42.00463707 -9.6484375 41.90625 C-10.36322266 41.91785156 -11.07800781 41.92945313 -11.81445312 41.94140625 C-13.88671875 41.9296875 -13.88671875 41.9296875 -17.3359375 41.53125 C-19.83540309 37.78205161 -19.64190934 34.81163795 -19.63671875 30.46875 C-19.64100388 29.68105225 -19.645289 28.89335449 -19.64970398 28.08178711 C-19.65544329 26.41749024 -19.65595047 24.75316829 -19.65161133 23.08886719 C-19.64844908 20.54058166 -19.67192199 17.99345467 -19.69726562 15.4453125 C-19.69953842 13.82812647 -19.70024221 12.21093731 -19.69921875 10.59375 C-19.7084285 9.83118896 -19.71763824 9.06862793 -19.72712708 8.28295898 C-19.68123479 3.04567379 -19.68123479 3.04567379 -18.00756836 0.55224609 C-13.26956181 -2.34162617 -5.24042288 -1.05158988 0 0 Z " fill="#88B9D4" transform="translate(190.3359375,335.46875)"/>
<path d="M0 0 C1.796875 0.55078125 1.796875 0.55078125 3.109375 2.48828125 C3.4496875 3.50921875 3.4496875 3.50921875 3.796875 4.55078125 C4.786875 5.21078125 5.776875 5.87078125 6.796875 6.55078125 C4.816875 7.87078125 2.836875 9.19078125 0.796875 10.55078125 C1.291875 11.54078125 1.291875 11.54078125 1.796875 12.55078125 C2.03039958 16.69195051 2.0252233 20.83468548 2.03710938 24.98193359 C2.04683851 27.04305015 2.07787356 29.10317906 2.109375 31.1640625 C2.11710937 33.10345703 2.11710937 33.10345703 2.125 35.08203125 C2.1343457 36.27376953 2.14369141 37.46550781 2.15332031 38.69335938 C2.03569336 39.63630859 1.91806641 40.57925781 1.796875 41.55078125 C-1.6383298 43.84091778 -3.188456 43.72921098 -7.203125 43.55078125 C-9.40711668 38.99586511 -9.79158763 34.52171949 -10.203125 29.55078125 C-10.863125 29.55078125 -11.523125 29.55078125 -12.203125 29.55078125 C-12.22375 30.60265625 -12.244375 31.65453125 -12.265625 32.73828125 C-13.38588053 37.29398706 -14.63481968 38.17710421 -18.4140625 40.60546875 C-21.57988816 42.27824126 -24.13862332 42.67201952 -27.65234375 42.6484375 C-28.49990234 42.64521484 -29.34746094 42.64199219 -30.22070312 42.63867188 C-31.54231445 42.62610352 -31.54231445 42.62610352 -32.890625 42.61328125 C-33.78330078 42.60876953 -34.67597656 42.60425781 -35.59570312 42.59960938 C-37.79824487 42.58783108 -40.00065099 42.57138289 -42.203125 42.55078125 C-42.533125 41.23078125 -42.863125 39.91078125 -43.203125 38.55078125 C-42.873125 39.21078125 -42.543125 39.87078125 -42.203125 40.55078125 C-39.32754797 40.63216551 -36.45430238 40.69145976 -33.578125 40.73828125 C-32.76988281 40.76341797 -31.96164063 40.78855469 -31.12890625 40.81445312 C-25.17180188 40.88710074 -20.97320856 39.95152033 -16.328125 35.92578125 C-14.55567409 32.18394045 -14.39603867 28.60062516 -15.203125 24.55078125 C-17.51568504 21.48353668 -17.51568504 21.48353668 -20.203125 19.55078125 C-19.56375 18.87015625 -18.924375 18.18953125 -18.265625 17.48828125 C-15.8772757 14.08669286 -15.52435347 11.64644424 -15.203125 7.55078125 C-14.39875 7.30328125 -13.594375 7.05578125 -12.765625 6.80078125 C-11.4971875 6.18203125 -11.4971875 6.18203125 -10.203125 5.55078125 C-9.54132653 3.57032566 -9.54132653 3.57032566 -9.203125 1.55078125 C-5.55973927 -0.87814257 -4.14255401 -0.62743063 0 0 Z " fill="#F0DEC1" transform="translate(186.203125,284.44921875)"/>
<path d="M0 0 C2.20396634 1.84848789 2.84094784 2.80509807 3.17578125 5.6484375 C3.37745749 12.03839001 3.37745749 12.03839001 1.0625 15.125 C-2.1217695 17.37271965 -3.8318831 17.74258024 -7.6875 17.6875 C-8.91339844 17.67396484 -8.91339844 17.67396484 -10.1640625 17.66015625 C-10.79054688 17.64855469 -11.41703125 17.63695312 -12.0625 17.625 C-11.7325 18.615 -11.4025 19.605 -11.0625 20.625 C-10.21945312 20.60179687 -9.37640625 20.57859375 -8.5078125 20.5546875 C-6.86425781 20.52761719 -6.86425781 20.52761719 -5.1875 20.5 C-3.55167969 20.46519531 -3.55167969 20.46519531 -1.8828125 20.4296875 C0.9375 20.625 0.9375 20.625 2.9375 22.625 C2.75 24.625 2.75 24.625 1.9375 26.625 C-2.94164668 29.87776446 -8.3637054 29.33123099 -14.0625 28.625 C-17.34925392 27.020396 -19.40599526 24.93800948 -21.0625 21.625 C-21.26667252 19.0232588 -21.38615064 16.47981282 -21.4375 13.875 C-21.47488281 13.17117188 -21.51226562 12.46734375 -21.55078125 11.7421875 C-21.61722271 7.77046454 -21.24078494 5.32927063 -18.7265625 2.171875 C-13.72123439 -2.61327738 -6.19386292 -2.78091805 0 0 Z " fill="#8CB9D1" transform="translate(355.0625,297.375)"/>
<path d="M0 0 C2.45669001 1.70033438 3.78720698 3.47837855 4.4453125 6.390625 C4.65566618 10.25348355 4.44480997 12.48732504 2.19921875 15.6953125 C-2.3882341 18.7536144 -6.67911064 18.28484034 -12.05078125 18.1953125 C-11.72078125 19.1853125 -11.39078125 20.1753125 -11.05078125 21.1953125 C-10.13554687 21.17210937 -9.2203125 21.14890625 -8.27734375 21.125 C-7.08882813 21.10695313 -5.9003125 21.08890625 -4.67578125 21.0703125 C-3.49242187 21.04710937 -2.3090625 21.02390625 -1.08984375 21 C1.94921875 21.1953125 1.94921875 21.1953125 3.94921875 23.1953125 C3.82421875 25.1953125 3.82421875 25.1953125 2.94921875 27.1953125 C-2.02490674 30.499637 -8.35346791 29.91740545 -14.05078125 29.1953125 C-17.60501748 26.66633672 -18.68826546 25.28285988 -20.05078125 21.1953125 C-20.19726207 18.92767676 -20.27174385 16.65498884 -20.30078125 14.3828125 C-20.3265625 13.18011719 -20.35234375 11.97742188 -20.37890625 10.73828125 C-20.01614378 6.82131028 -19.18442846 4.48708804 -17.05078125 1.1953125 C-12.43403308 -2.16497889 -5.18209137 -2.03335395 0 0 Z " fill="#8FBACF" transform="translate(278.05078125,296.8046875)"/>
<path d="M0 0 C2.97196993 2.50759963 3.93599346 4.19373524 4.4375 8.0625 C3.88897827 12.60739433 2.53443573 13.89282989 -1 16.6875 C-3.75078884 17.60442961 -5.35948913 17.79636083 -8.1875 17.75 C-10.0746875 17.7190625 -10.0746875 17.7190625 -12 17.6875 C-11.67 18.6775 -11.34 19.6675 -11 20.6875 C-10.15695312 20.67589844 -9.31390625 20.66429687 -8.4453125 20.65234375 C-7.34960938 20.64332031 -6.25390625 20.63429688 -5.125 20.625 C-4.03445313 20.61339844 -2.94390625 20.60179687 -1.8203125 20.58984375 C1 20.6875 1 20.6875 3 21.6875 C2.75 24.0625 2.75 24.0625 2 26.6875 C-2.51536148 29.71496205 -7.78717375 29.1979548 -13 28.6875 C-16.74030185 27.08451349 -17.73158465 26.09012302 -20 22.6875 C-20.22234558 19.851872 -20.32446811 17.14654915 -20.3125 14.3125 C-20.32861328 13.55710937 -20.34472656 12.80171875 -20.36132812 12.0234375 C-20.36532806 7.44751367 -20.03695484 4.34829883 -17 0.6875 C-12.08525294 -2.69458166 -5.28179187 -2.31078394 0 0 Z " fill="#9CBBC6" transform="translate(295,348.3125)"/>
<path d="M0 0 C2.875 -0.125 2.875 -0.125 6 0 C8 2 8 2 8.22705078 4.15478516 C8.21134033 5.45875244 8.21134033 5.45875244 8.1953125 6.7890625 C8.18564453 8.20058594 8.18564453 8.20058594 8.17578125 9.640625 C8.15902344 10.62546875 8.14226562 11.6103125 8.125 12.625 C8.11597656 13.61757813 8.10695312 14.61015625 8.09765625 15.6328125 C8.07404116 18.08878134 8.04110799 20.54427168 8 23 C11.465 22.505 11.465 22.505 15 22 C15.02505615 21.36908447 15.0501123 20.73816895 15.07592773 20.08813477 C15.19154137 17.24603175 15.31442316 14.40428917 15.4375 11.5625 C15.47681641 10.56927734 15.51613281 9.57605469 15.55664062 8.55273438 C15.59853516 7.60849609 15.64042969 6.66425781 15.68359375 5.69140625 C15.72025146 4.81685791 15.75690918 3.94230957 15.79467773 3.04125977 C16 1 16 1 17 0 C18.99958364 -0.04080783 21.00045254 -0.04254356 23 0 C24.21658421 2.43316842 24.18828706 4.14901059 24.28125 6.8671875 C24.31863281 7.83527344 24.35601562 8.80335938 24.39453125 9.80078125 C24.44673828 11.32251953 24.44673828 11.32251953 24.5 12.875 C24.56905684 14.87253301 24.64183084 16.8699418 24.71875 18.8671875 C24.74904297 19.75519043 24.77933594 20.64319336 24.81054688 21.55810547 C24.91484676 23.98839814 24.91484676 23.98839814 25.64257812 26.19580078 C25.76052734 26.79118652 25.87847656 27.38657227 26 28 C25.34 28.66 24.68 29.32 24 30 C21.66117862 29.70764733 19.32716 29.37400786 17 29 C16.34 29.33 15.68 29.66 15 30 C9.82942493 30.64060222 6.19063457 30.89905059 1.9375 27.6875 C-0.6109865 24.15250259 -1.12689737 21.64729263 -1.1328125 17.40234375 C-1.13410156 16.51869141 -1.13539063 15.63503906 -1.13671875 14.72460938 C-1.13285156 13.80486328 -1.12898437 12.88511719 -1.125 11.9375 C-1.12886719 11.01388672 -1.13273438 10.09027344 -1.13671875 9.13867188 C-1.13542969 8.25630859 -1.13414062 7.37394531 -1.1328125 6.46484375 C-1.13168457 5.656521 -1.13055664 4.84819824 -1.12939453 4.01538086 C-1 2 -1 2 0 0 Z " fill="#96BCCD" transform="translate(206,347)"/>
<path d="M0 0 C3.85332151 1.67535718 5.46249765 3.13942569 7 7 C7.24291992 9.45776367 7.24291992 9.45776367 7.23046875 12.16796875 C7.22853516 13.14314453 7.22660156 14.11832031 7.22460938 15.12304688 C7.20624023 16.63995117 7.20624023 16.63995117 7.1875 18.1875 C7.18685547 19.21037109 7.18621094 20.23324219 7.18554688 21.28710938 C7.14032251 28.85967749 7.14032251 28.85967749 6 30 C3 30.125 3 30.125 0 30 C-1.58403524 28.41596476 -1.21974935 26.7228362 -1.31640625 24.52734375 C-1.35830078 23.62822266 -1.40019531 22.72910156 -1.44335938 21.80273438 C-1.48267578 20.85720703 -1.52199219 19.91167969 -1.5625 18.9375 C-1.60568359 17.98810547 -1.64886719 17.03871094 -1.69335938 16.06054688 C-1.79979276 13.70718647 -1.90181008 11.35371646 -2 9 C-4.31 8.34 -6.62 7.68 -9 7 C-8.98952637 7.62567871 -8.97905273 8.25135742 -8.96826172 8.89599609 C-8.92676809 11.7222901 -8.90069527 14.54852011 -8.875 17.375 C-8.85824219 18.35984375 -8.84148437 19.3446875 -8.82421875 20.359375 C-8.81777344 21.30039062 -8.81132812 22.24140625 -8.8046875 23.2109375 C-8.79421387 24.08024902 -8.78374023 24.94956055 -8.77294922 25.84521484 C-9 28 -9 28 -11 30 C-14.125 30.125 -14.125 30.125 -17 30 C-18.68044883 24.95865352 -18.42590243 19.65694143 -18.625 14.375 C-18.6765625 13.20453125 -18.728125 12.0340625 -18.78125 10.828125 C-18.84699219 9.16136719 -18.84699219 9.16136719 -18.9140625 7.4609375 C-18.9548291 6.43790527 -18.9955957 5.41487305 -19.03759766 4.36083984 C-19 2 -19 2 -18 1 C-15.96994518 1 -13.93935573 1.00357588 -11.91015625 1.0625 C-7.88273725 0.93072351 -4.30378588 -0.46259503 0 0 Z " fill="#A1BCC3" transform="translate(322,347)"/>
<path d="M0 0 C3.58552881 1.63687185 4.79315055 2.68972583 7 6 C7.24291992 8.43603516 7.24291992 8.43603516 7.23046875 11.2890625 C7.22853516 12.31257813 7.22660156 13.33609375 7.22460938 14.390625 C7.20624023 15.99164063 7.20624023 15.99164063 7.1875 17.625 C7.18685547 18.70007813 7.18621094 19.77515625 7.18554688 20.8828125 C7.14022321 28.85977679 7.14022321 28.85977679 6 30 C4.00041636 30.04080783 1.99954746 30.04254356 0 30 C-1.14654482 27.70691037 -1.19729117 26.20090344 -1.31640625 23.6484375 C-1.35830078 22.79765625 -1.40019531 21.946875 -1.44335938 21.0703125 C-1.48267578 20.18085938 -1.52199219 19.29140625 -1.5625 18.375 C-1.60568359 17.4778125 -1.64886719 16.580625 -1.69335938 15.65625 C-1.79956861 13.43765717 -1.90161194 11.2189512 -2 9 C-4.31 8.34 -6.62 7.68 -9 7 C-8.99476318 7.62567871 -8.98952637 8.25135742 -8.98413086 8.89599609 C-8.96338382 11.72232057 -8.95034714 14.54862905 -8.9375 17.375 C-8.92912109 18.35984375 -8.92074219 19.3446875 -8.91210938 20.359375 C-8.90888672 21.30039062 -8.90566406 22.24140625 -8.90234375 23.2109375 C-8.89710693 24.08024902 -8.89187012 24.94956055 -8.88647461 25.84521484 C-9 28 -9 28 -10 30 C-12.31 30 -14.62 30 -17 30 C-17 22.08 -17 14.16 -17 6 C-17.66 6 -18.32 6 -19 6 C-18.67 4.35 -18.34 2.7 -18 1 C-15.98177083 1.03255208 -13.96354167 1.06510417 -11.9453125 1.09765625 C-7.88002171 0.89357539 -4.332193 -0.47396353 0 0 Z " fill="#89B9D3" transform="translate(212,296)"/>
<path d="M0 0 C4.05200754 2.10104095 6.32461595 3.76931944 8 8 C8.25878906 10.25830078 8.25878906 10.25830078 8.265625 12.6953125 C8.26949219 14.01595703 8.26949219 14.01595703 8.2734375 15.36328125 C8.26570313 16.27464844 8.25796875 17.18601562 8.25 18.125 C8.25773437 19.04410156 8.26546875 19.96320313 8.2734375 20.91015625 C8.27085937 21.78800781 8.26828125 22.66585938 8.265625 23.5703125 C8.26336914 24.37227051 8.26111328 25.17422852 8.25878906 26.00048828 C8 28 8 28 6 30 C2.875 30.125 2.875 30.125 0 30 C-0.02505615 29.40461426 -0.0501123 28.80922852 -0.07592773 28.19580078 C-0.19177494 25.50530864 -0.31455196 22.8151766 -0.4375 20.125 C-0.47681641 19.18785156 -0.51613281 18.25070312 -0.55664062 17.28515625 C-0.59853516 16.38925781 -0.64042969 15.49335938 -0.68359375 14.5703125 C-0.72025146 13.74289551 -0.75690918 12.91547852 -0.79467773 12.06298828 C-0.88238327 9.93820571 -0.88238327 9.93820571 -2 8 C-3.98 8 -5.96 8 -8 8 C-8.02505615 8.63091553 -8.0501123 9.26183105 -8.07592773 9.91186523 C-8.19154137 12.75396825 -8.31442316 15.59571083 -8.4375 18.4375 C-8.47681641 19.43072266 -8.51613281 20.42394531 -8.55664062 21.44726562 C-8.59853516 22.39150391 -8.64042969 23.33574219 -8.68359375 24.30859375 C-8.73858032 25.62041626 -8.73858032 25.62041626 -8.79467773 26.95874023 C-9 29 -9 29 -10 30 C-11.99958364 30.04080783 -14.00045254 30.04254356 -16 30 C-18.19173639 25.61652721 -17.45148676 19.76269911 -17.625 14.9375 C-17.6765625 13.71482422 -17.728125 12.49214844 -17.78125 11.23242188 C-17.82507813 10.07162109 -17.86890625 8.91082031 -17.9140625 7.71484375 C-17.9548291 6.64355225 -17.9955957 5.57226074 -18.03759766 4.46850586 C-18 2 -18 2 -17 1 C-14.66666667 1 -12.33333333 1 -10 1 C-6.78501861 -0.6074907 -3.48701742 -0.47314549 0 0 Z " fill="#87BAD6" transform="translate(244,296)"/>
<path d="M0 0 C2.6875 2 2.6875 2 4 4 C3.34 5.32 2.68 6.64 2 8 C-1.63 7.67 -5.26 7.34 -9 7 C-8.34145752 10.09788827 -8.34145752 10.09788827 -6.0390625 11.09765625 C-5.24242187 11.41605469 -4.44578125 11.73445313 -3.625 12.0625 C-0.78250709 13.21523735 1.42065555 14.28043703 4 16 C4.64993304 19.03302087 4.50502309 21.94814002 4 25 C2.12379387 27.50160818 0.76108697 28.61945652 -2 30 C-3.97637414 30.12227926 -5.9573831 30.17549929 -7.9375 30.1875 C-8.99839844 30.20167969 -10.05929687 30.21585937 -11.15234375 30.23046875 C-14 30 -14 30 -17 28 C-17 26.35 -17 24.7 -17 23 C-13.04 23 -9.08 23 -5 23 C-4.67 21.68 -4.34 20.36 -4 19 C-4.86625 18.9175 -5.7325 18.835 -6.625 18.75 C-10.5113315 17.88637078 -12.85904306 16.41050184 -16 14 C-17.54586876 10.90826248 -17.29359521 8.40570448 -17 5 C-12.38729924 -0.84275429 -7.04465059 -0.80123795 0 0 Z " fill="#90B9CD" transform="translate(304,296)"/>
<path d="M0 0 C3.125 0.375 3.125 0.375 6 1 C6 3.97 6 6.94 6 10 C8.31 10 10.62 10 13 10 C13.38133299 11.9914056 13.71325582 13.99279077 14 16 C13.67 16.33 13.34 16.66 13 17 C10.69 17 8.38 17 6 17 C6.33 21.95 6.66 26.9 7 32 C8.98 32 10.96 32 13 32 C13.66 32.33 14.32 32.66 15 33 C15.042721 34.66611905 15.04063832 36.33382885 15 38 C13.35962605 39.64037395 11.50523159 39.24911331 9.25 39.3125 C5.60699454 39.27601783 4.17928568 39.10244896 0.9375 37.25 C-3.50379886 32.09236261 -2.18608234 24.86685831 -2.18530273 18.41796875 C-2.18750022 16.37479149 -2.20571012 14.33214513 -2.22460938 12.2890625 C-2.22654297 11.00515625 -2.22847656 9.72125 -2.23046875 8.3984375 C-2.23457764 7.21942871 -2.23868652 6.04041992 -2.24291992 4.82568359 C-2 2 -2 2 0 0 Z " fill="#88B9D3" transform="translate(316,287)"/>
<path d="M0 0 C4.55555556 0.55555556 4.55555556 0.55555556 6 2 C6.07179964 3.51928038 6.08392007 5.04167482 6.0625 6.5625 C6.05347656 7.38878906 6.04445313 8.21507812 6.03515625 9.06640625 C6.02355469 9.70449219 6.01195312 10.34257812 6 11 C8.31 11 10.62 11 13 11 C13.38218767 12.65614657 13.71395102 14.32457024 14 16 C13 17 13 17 9.4375 17.0625 C8.303125 17.041875 7.16875 17.02125 6 17 C6.33 21.29 6.66 25.58 7 30 C9.64 30.99 12.28 31.98 15 33 C15.042721 34.66611905 15.04063832 36.33382885 15 38 C13.35843264 39.64156736 11.50784199 39.28815992 9.25 39.375 C5.18962832 39.35176468 4.28359537 39.2199311 0.9375 36.625 C-3.05626973 31.21408618 -2.18604958 25.61523077 -2.18530273 19.14160156 C-2.18749152 17.00826135 -2.20565919 14.87543634 -2.22460938 12.7421875 C-2.22754294 11.39062677 -2.22952798 10.03906358 -2.23046875 8.6875 C-2.23457764 7.45386719 -2.23868652 6.22023438 -2.24291992 4.94921875 C-2 2 -2 2 0 0 Z " fill="#89B9D4" transform="translate(256,338)"/>
<path d="M0 0 C0.66 0.33 1.32 0.66 2 1 C2 3.31 2 5.62 2 8 C4.31 8 6.62 8 9 8 C9.66 9.65 10.32 11.3 11 13 C11.66 12.34 12.32 11.68 13 11 C13 13.57185488 12.9675198 16.14402478 12.89453125 18.71484375 C12.86677686 20.1223878 12.83944508 21.52994023 12.8125 22.9375 C12.78736328 23.64068359 12.76222656 24.34386719 12.73632812 25.06835938 C12.67258405 29.60268764 13.28091332 32.35314096 16 36 C15.030625 36.309375 14.06125 36.61875 13.0625 36.9375 C10.15934208 37.69523342 10.15934208 37.69523342 9 39 C7.06668191 39.15209159 5.12658716 39.22186331 3.1875 39.25 C2.12917969 39.27578125 1.07085937 39.3015625 -0.01953125 39.328125 C-3.29387524 38.96764676 -4.60999318 38.19903775 -7 36 C-6.67 35.34 -6.34 34.68 -6 34 C-5.44828125 34.49113281 -4.8965625 34.98226562 -4.328125 35.48828125 C-1.53629931 37.30109424 -0.03814259 37.3172951 3.25 37.1875 C4.14203125 37.16042969 5.0340625 37.13335937 5.953125 37.10546875 C6.96632813 37.05326172 6.96632813 37.05326172 8 37 C8.33 35.35 8.66 33.7 9 32 C7.700625 31.87625 6.40125 31.7525 5.0625 31.625 C2.84765625 31.4140625 2.84765625 31.4140625 1 31 C-0.44207941 28.11584117 -0.09394887 25.58278472 -0.0625 22.375 C-0.05347656 21.18648438 -0.04445313 19.99796875 -0.03515625 18.7734375 C-0.02355469 17.85820312 -0.01195312 16.94296875 0 16 C3.465 15.505 3.465 15.505 7 15 C7 13.02 7 11.04 7 9 C4.69 9 2.38 9 0 9 C0 6.03 0 3.06 0 0 Z " fill="#EBE1C9" transform="translate(322,288)"/>
<path d="M0 0 C0.66 0 1.32 0 2 0 C2.94466756 3.24078125 3.19098828 6.27225655 3.31640625 9.640625 C3.37924805 11.24550781 3.37924805 11.24550781 3.44335938 12.8828125 C3.48267578 13.99398438 3.52199219 15.10515625 3.5625 16.25 C3.60568359 17.37664062 3.64886719 18.50328125 3.69335938 19.6640625 C3.79932015 22.44258954 3.90139142 25.22120391 4 28 C5.98 27.67 7.96 27.34 10 27 C10.02505615 26.36908447 10.0501123 25.73816895 10.07592773 25.08813477 C10.19154137 22.24603175 10.31442316 19.40428917 10.4375 16.5625 C10.49647461 15.07266602 10.49647461 15.07266602 10.55664062 13.55273438 C10.59853516 12.60849609 10.64042969 11.66425781 10.68359375 10.69140625 C10.72025146 9.81685791 10.75690918 8.94230957 10.79467773 8.04125977 C11 6 11 6 12 5 C14.9375 4.75 14.9375 4.75 18 5 C20.13604308 8.20406462 20.24208908 8.99600747 20.1953125 12.66796875 C20.18886719 13.56064453 20.18242187 14.45332031 20.17578125 15.37304688 C20.15902344 16.30181641 20.14226562 17.23058594 20.125 18.1875 C20.11597656 19.12787109 20.10695312 20.06824219 20.09765625 21.03710938 C20.07409056 23.35832968 20.04119116 25.67903644 20 28 C21.98 28 23.96 28 26 28 C26 28.33 26 28.66 26 29 C24.39592672 29.02708567 22.7917215 29.04643483 21.1875 29.0625 C19.84751953 29.07990234 19.84751953 29.07990234 18.48046875 29.09765625 C16 29 16 29 13 28 C12.030625 28.33 11.06125 28.66 10.0625 29 C5.79012346 30.39506173 5.79012346 30.39506173 3 29 C1.13363729 25.99585692 0.72486401 23.59010234 0.62109375 20.0859375 C0.58693359 19.16039062 0.55277344 18.23484375 0.51757812 17.28125 C0.49115234 16.3221875 0.46472656 15.363125 0.4375 14.375 C0.37768519 12.46601673 0.31407155 10.55714752 0.24609375 8.6484375 C0.22216553 7.80458496 0.1982373 6.96073242 0.17358398 6.09130859 C0.12558575 3.94142511 0.12558575 3.94142511 -1 2 C-0.67 1.34 -0.34 0.68 0 0 Z " fill="#F2DEC0" transform="translate(224,298)"/>
<path d="M0 0 C2.125 0.375 2.125 0.375 4 1 C2.7934375 1.6496875 2.7934375 1.6496875 1.5625 2.3125 C-1.27846354 3.80474002 -1.27846354 3.80474002 -2 7 C-2.14854388 9.80519407 -2.23104204 12.56922127 -2.25 15.375 C-2.270625 16.13039063 -2.29125 16.88578125 -2.3125 17.6640625 C-2.3449641 22.30642831 -1.9040642 25.16357835 1 29 C-0.32 28.67 -1.64 28.34 -3 28 C-3 27.34 -3 26.68 -3 26 C-3.66 26 -4.32 26 -5 26 C-5.33 27.65 -5.66 29.3 -6 31 C-11.02125926 31.77916092 -14.97703996 32.13016601 -20 31 C-20 30.34 -20 29.68 -20 29 C-16.04 29 -12.08 29 -8 29 C-7.67 27.35 -7.34 25.7 -7 24 C-8.11375 23.87625 -9.2275 23.7525 -10.375 23.625 C-14 23 -14 23 -16 21 C-16.1953125 17.9609375 -16.1953125 17.9609375 -16.125 14.375 C-16.10695313 13.18648438 -16.08890625 11.99796875 -16.0703125 10.7734375 C-16.04710937 9.85820312 -16.02390625 8.94296875 -16 8 C-14.88625 7.9175 -13.7725 7.835 -12.625 7.75 C-8.94246056 7.42126213 -8.94246056 7.42126213 -7.5625 4.9375 C-7.376875 4.298125 -7.19125 3.65875 -7 3 C-7 4.65 -7 6.3 -7 8 C-4.24282298 6.62141149 -3.53678254 4.62533685 -2 2 C-1.34 1.34 -0.68 0.68 0 0 Z " fill="#F1DEBE" transform="translate(278,347)"/>
<path d="M0 0 C0.66 0 1.32 0 2 0 C3.91680574 3.83361148 3.50114041 8.28097186 2.328125 12.3046875 C1.60425558 14.22362436 0.80790011 16.11489973 0 18 C4.40971758 18.96544113 8.83591551 19.52242949 13.3125 20.0625 C14.05306641 20.15337891 14.79363281 20.24425781 15.55664062 20.33789062 C17.37088758 20.56028219 19.18541624 20.78037353 21 21 C21 20.34 21 19.68 21 19 C23.31 19 25.62 19 28 19 C25.29600642 21.77571754 24.02761133 21.99942419 20.06640625 22.08203125 C17.80145766 21.96828493 15.54676359 21.81116274 13.28710938 21.61914062 C9.06288178 21.34344384 9.06288178 21.34344384 5.48950195 23.28320312 C4.27384751 24.81524806 3.13429367 26.40677833 2 28 C-2.35295578 30.66712898 -6.93287795 31.38003415 -12 31 C-11.67 30.34 -11.34 29.68 -11 29 C-8.4375 28.375 -8.4375 28.375 -6 28 C-6 27.34 -6 26.68 -6 26 C-4.5 24.375 -4.5 24.375 -3 23 C-4.64696604 23.4752588 -6.29254728 23.95531891 -7.9375 24.4375 C-8.85402344 24.70433594 -9.77054687 24.97117188 -10.71484375 25.24609375 C-12.9402493 25.79026051 -12.9402493 25.79026051 -14 27 C-15.78071246 27.08726223 -17.5648314 27.10699041 -19.34765625 27.09765625 C-20.42724609 27.09443359 -21.50683594 27.09121094 -22.61914062 27.08789062 C-23.75544922 27.07951172 -24.89175781 27.07113281 -26.0625 27.0625 C-27.20267578 27.05798828 -28.34285156 27.05347656 -29.51757812 27.04882812 C-32.34510351 27.03699747 -35.1725264 27.0205141 -38 27 C-38.33 26.34 -38.66 25.68 -39 25 C-37.97229492 24.97812622 -37.97229492 24.97812622 -36.92382812 24.95581055 C-33.78202026 24.88076568 -30.64121008 24.7842931 -27.5 24.6875 C-25.88351563 24.65366211 -25.88351563 24.65366211 -24.234375 24.61914062 C-17.1160842 24.38041746 -10.63531732 24.03517955 -4.94140625 19.28125 C-4.25884766 18.39953125 -4.25884766 18.39953125 -3.5625 17.5 C-3.08941406 16.9121875 -2.61632812 16.324375 -2.12890625 15.71875 C0.12559465 12.28629189 0.10934404 9.29424368 0.0625 5.3125 C0.05347656 4.31863281 0.04445313 3.32476562 0.03515625 2.30078125 C0.02355469 1.54152344 0.01195312 0.78226563 0 0 Z " fill="#93B9CA" transform="translate(276,208)"/>
<path d="M0 0 C4.875 1.75 4.875 1.75 6 4 C5.91348369 5.54613014 5.75997364 7.08909387 5.5625 8.625 C5.46066406 9.44226563 5.35882813 10.25953125 5.25390625 11.1015625 C5.17011719 11.72804688 5.08632813 12.35453125 5 13 C4.01 13.33 3.02 13.66 2 14 C1.67 14.66 1.34 15.32 1 16 C-2.63 16 -6.26 16 -10 16 C-9.67 18.31 -9.34 20.62 -9 23 C-10.32 23.33 -11.64 23.66 -13 24 C-16.5612357 17.75024249 -15.32115989 9.84601035 -14 3 C-11 1 -11 1 -7 1 C-7.33 4.3 -7.66 7.6 -8 11 C-3.545 10.505 -3.545 10.505 1 10 C1.33 8.02 1.66 6.04 2 4 C1.34 4 0.68 4 0 4 C0 2.68 0 1.36 0 0 Z " fill="#88B9D5" transform="translate(291,349)"/>
<path d="M0 0 C0.02465881 3.96930989 0.04284023 7.93859034 0.05493164 11.90795898 C0.05997057 13.25920386 0.06680177 14.61044326 0.07543945 15.96166992 C0.08752419 17.90020434 0.09269828 19.838778 0.09765625 21.77734375 C0.10289307 22.94515381 0.10812988 24.11296387 0.11352539 25.31616211 C0 28 0 28 -1 29 C-3.31 28.67 -5.62 28.34 -8 28 C-8 18.76 -8 9.52 -8 0 C-5.13822943 -1.43088528 -3.06624227 -0.59991697 0 0 Z " fill="#8FB9CE" transform="translate(246,348)"/>
<path d="M0 0 C2.4375 0.1875 2.4375 0.1875 3.4375 1.1875 C3.52517112 3.26012076 3.54445873 5.33570294 3.53515625 7.41015625 C3.53193359 8.67021484 3.52871094 9.93027344 3.52539062 11.22851562 C3.51703403 12.56901109 3.50856907 13.90950588 3.5 15.25 C3.4949866 16.59439942 3.49042342 17.9388006 3.48632812 19.28320312 C3.47449488 22.58467941 3.45800971 25.88606803 3.4375 29.1875 C1.1275 29.5175 -1.1825 29.8475 -3.5625 30.1875 C-5.73675477 25.83899046 -4.74746474 19.96392634 -4.75 15.1875 C-4.76224609 13.97320312 -4.77449219 12.75890625 -4.78710938 11.5078125 C-4.78904297 10.35023438 -4.79097656 9.19265625 -4.79296875 8 C-4.79707764 6.93394531 -4.80118652 5.86789062 -4.80541992 4.76953125 C-4.46814823 1.18462128 -3.60377258 0.26369068 0 0 Z " fill="#90BAD0" transform="translate(182.5625,295.8125)"/>
<path d="M0 0 C2.475 0.495 2.475 0.495 5 1 C5 9.25 5 17.5 5 26 C1 25 1 25 -1 24 C-1.37125 24.495 -1.7425 24.99 -2.125 25.5 C-4.82231081 27.65784865 -6.62047689 27.33795231 -10 27 C-12.875 26 -12.875 26 -15 25 C-14.67 23.35 -14.34 21.7 -14 20 C-11 20 -11 20 -8.5625 21 C-5.83739994 22.24236166 -5.83739994 22.24236166 -2 22 C-1.97494385 21.36908447 -1.9498877 20.73816895 -1.92407227 20.08813477 C-1.80845863 17.24603175 -1.68557684 14.40428917 -1.5625 11.5625 C-1.50352539 10.07266602 -1.50352539 10.07266602 -1.44335938 8.55273438 C-1.40146484 7.60849609 -1.35957031 6.66425781 -1.31640625 5.69140625 C-1.27974854 4.81685791 -1.24309082 3.94230957 -1.20532227 3.04125977 C-1 1 -1 1 0 0 Z " fill="#87BAD5" transform="translate(224,349)"/>
<path d="M0 0 C4.875 1.75 4.875 1.75 6 4 C6.375 6.8125 6.375 6.8125 6 10 C3.827365 12.57285724 2.02006162 14.48996919 -1 16 C-0.67 14.02 -0.34 12.04 0 10 C-0.40089844 10.48984375 -0.80179688 10.9796875 -1.21484375 11.484375 C-3.48117723 13.40852684 -4.63257816 13.34653779 -7.5625 13.25 C-8.74005859 13.22679687 -8.74005859 13.22679687 -9.94140625 13.203125 C-12 13 -12 13 -14 12 C-14 8.7 -14 5.4 -14 2 C-9.66666667 2 -5.33333333 2 -1 2 C-0.67 1.34 -0.34 0.68 0 0 Z " fill="#93BACD" transform="translate(193,340)"/>
<path d="M0 0 C0.33 0 0.66 0 1 0 C1.185625 1.2375 1.37125 2.475 1.5625 3.75 C2.185117 6.28078131 2.59286245 7.63593494 4.55078125 9.38671875 C7.53017728 11.1029019 10.59476628 12.4551626 14 13 C13.67 14.65 13.34 16.3 13 18 C9.04 17.67 5.08 17.34 1 17 C1.33 18.65 1.66 20.3 2 22 C4.70238298 23.35119149 6.86014446 23.13237128 9.875 23.125 C10.92429687 23.12757813 11.97359375 23.13015625 13.0546875 23.1328125 C15.55676685 23.01998664 17.61756923 22.72508762 20 22 C19.505 23.485 19.505 23.485 19 25 C13.27568068 27.5043897 7.0014058 27.25610819 1 26 C0.34 25.67 -0.32 25.34 -1 25 C-0.67 24.34 -0.34 23.68 0 23 C-2.76276177 23.52268466 -5.3260876 24.10869587 -8 25 C-10.43448818 25.14703064 -12.8737477 25.22105339 -15.3125 25.25 C-16.60800781 25.27578125 -17.90351563 25.3015625 -19.23828125 25.328125 C-23.19583975 24.9829174 -25.60454069 24.00042564 -29 22 C-28.67 20.02 -28.34 18.04 -28 16 C-25 19.75 -25 19.75 -25 22 C-21.66749498 23.11083501 -19.06961042 23.16759585 -15.5625 23.1875 C-13.86287109 23.20876953 -13.86287109 23.20876953 -12.12890625 23.23046875 C-7.93515026 22.92156538 -5.94230806 21.94230806 -3 19 C-2.34 19 -1.68 19 -1 19 C-0.71125 18.236875 -0.4225 17.47375 -0.125 16.6875 C1 14 1 14 3 11 C2.34 11 1.68 11 1 11 C-0.20272819 8.59454362 -0.10071472 7.05003047 -0.0625 4.375 C-0.05347656 3.55773437 -0.04445313 2.74046875 -0.03515625 1.8984375 C-0.02355469 1.27195312 -0.01195312 0.64546875 0 0 Z " fill="#E9DFC7" transform="translate(286,302)"/>
<path d="M0 0 C2.31 0.33 4.62 0.66 7 1 C7 1.66 7 2.32 7 3 C7.66 3 8.32 3 9 3 C9 2.01 9 1.02 9 0 C11.375 -0.1875 11.375 -0.1875 14 0 C16.1519437 3.22791555 16.20086443 4.28400809 16 8 C13 8 10 8 7 8 C4.32643843 8.28627045 1.66634425 8.65031551 -1 9 C-1.625 6.1875 -1.625 6.1875 -2 3 C-1.34 2.01 -0.68 1.02 0 0 Z M-5.9375 1.9375 C-4.4834375 1.9684375 -4.4834375 1.9684375 -3 2 C-2.375 4.375 -2.375 4.375 -2 7 C-4 9 -4 9 -6.625 9.125 C-7.40875 9.08375 -8.1925 9.0425 -9 9 C-9.38133299 7.0085944 -9.71325582 5.00720923 -10 3 C-9 2 -9 2 -5.9375 1.9375 Z " fill="#E8DEC7" transform="translate(247,211)"/>
<path d="M0 0 C4.30996812 0.40660077 7.08262477 1.04131238 11 3 C11 10.59 11 18.18 11 26 C9.35 26.33 7.7 26.66 6 27 C5 26 5 26 4.88647461 23.77514648 C4.89171143 22.81680908 4.89694824 21.85847168 4.90234375 20.87109375 C4.90556641 19.83662109 4.90878906 18.80214844 4.91210938 17.73632812 C4.92048828 16.64771484 4.92886719 15.55910156 4.9375 14.4375 C4.94201172 13.34501953 4.94652344 12.25253906 4.95117188 11.12695312 C4.96300174 8.41791505 4.97948457 5.70898401 5 3 C3.02 3.33 1.04 3.66 -1 4 C-1 1 -1 1 0 0 Z " fill="#89B9D3" transform="translate(317,349)"/>
<path d="M0 0 C2.7949774 1.07772434 4.38067711 2.13669615 6.03125 4.6484375 C6.216875 5.2465625 6.4025 5.8446875 6.59375 6.4609375 C4.57329558 5.85910001 2.57263961 5.18787654 0.59375 4.4609375 C0.26375 3.8009375 -0.06625 3.1409375 -0.40625 2.4609375 C-6.01625 2.1309375 -11.62625 1.8009375 -17.40625 1.4609375 C-17.07625 13.6709375 -16.74625 25.8809375 -16.40625 38.4609375 C-13.34091836 39.99360332 -10.13870728 39.56370221 -6.78125 39.5234375 C-6.07484375 39.51892578 -5.3684375 39.51441406 -4.640625 39.50976562 C-2.89579725 39.49797625 -1.151013 39.48004074 0.59375 39.4609375 C0.59375 38.8009375 0.59375 38.1409375 0.59375 37.4609375 C2.24375 37.4609375 3.89375 37.4609375 5.59375 37.4609375 C3.34905672 40.04233477 1.94547219 40.87684259 -1.40625 41.4609375 C-4.12856309 41.60568216 -6.8088641 41.6914571 -9.53125 41.7109375 C-10.25957031 41.7315625 -10.98789063 41.7521875 -11.73828125 41.7734375 C-13.8515625 41.7890625 -13.8515625 41.7890625 -17.40625 41.4609375 C-19.90571559 37.71173911 -19.71222184 34.74132545 -19.70703125 30.3984375 C-19.71131638 29.61073975 -19.7156015 28.82304199 -19.72001648 28.01147461 C-19.72575579 26.34717774 -19.72626297 24.68285579 -19.72192383 23.01855469 C-19.71876158 20.47026916 -19.74223449 17.92314217 -19.76757812 15.375 C-19.76985092 13.75781397 -19.77055471 12.14062481 -19.76953125 10.5234375 C-19.778741 9.76087646 -19.78795074 8.99831543 -19.79743958 8.21264648 C-19.75154729 2.97536129 -19.75154729 2.97536129 -18.07788086 0.48193359 C-13.34222054 -2.41050564 -5.21302831 -1.16785374 0 0 Z " fill="#98B5C0" transform="translate(190.40625,335.5390625)"/>
<path d="M0 0 C3.56206722 -0.14567407 7.12336551 -0.23419196 10.6875 -0.3125 C12.19860352 -0.3753418 12.19860352 -0.3753418 13.74023438 -0.43945312 C18.20722866 -0.5131659 21.19608991 -0.42559946 25.1875 1.6875 C28.11072691 7.02994918 27.52134859 12.33943027 27.3125 18.3125 C27.28994141 19.53001953 27.26738281 20.74753906 27.24414062 22.00195312 C27.1853053 25.00255482 27.1031414 28.00064797 27 31 C24.78704384 32.10647808 23.45327301 32.19588368 21 32.25 C20.29875 32.27578125 19.5975 32.3015625 18.875 32.328125 C18.25625 32.21984375 17.6375 32.1115625 17 32 C14.86395692 28.79593538 14.75791092 28.00399253 14.8046875 24.33203125 C14.81435547 22.99301758 14.81435547 22.99301758 14.82421875 21.62695312 C14.84097656 20.69818359 14.85773438 19.76941406 14.875 18.8125 C14.88402344 17.87212891 14.89304688 16.93175781 14.90234375 15.96289062 C14.92590944 13.64167032 14.95880884 11.32096356 15 9 C15.66 9.33 16.32 9.66 17 10 C17.33 16.93 17.66 23.86 18 31 C19.98 30.67 21.96 30.34 24 30 C24.0871747 26.25014675 24.14045003 22.50055445 24.1875 18.75 C24.21263672 17.68652344 24.23777344 16.62304688 24.26367188 15.52734375 C24.27333984 14.50253906 24.28300781 13.47773438 24.29296875 12.421875 C24.3086792 11.47924805 24.32438965 10.53662109 24.34057617 9.56542969 C23.93597761 6.51774392 23.12489009 5.19419687 21 3 C16.47909231 1.49303077 11.93993943 1.59396617 7.3125 2.5625 C4.60701497 3.07434852 2.64602695 2.68040693 0 2 C0 1.34 0 0.68 0 0 Z " fill="#E8E1CB" transform="translate(194,295)"/>
<path d="M0 0 C1.32 0.33 2.64 0.66 4 1 C3.34 1 2.68 1 2 1 C0.28878246 5.52150975 -0.35223612 9.55617153 -0.625 14.375 C-0.69976562 15.62023437 -0.77453125 16.86546875 -0.8515625 18.1484375 C-0.90054687 19.08945312 -0.94953125 20.03046875 -1 21 C-1.66 21 -2.32 21 -3 21 C-3 21.66 -3 22.32 -3 23 C-3.66 23.33 -4.32 23.66 -5 24 C-5.65555119 26.52733235 -5.65555119 26.52733235 -6 29 C-6.99 28.67 -7.98 28.34 -9 28 C-8.67 27.67 -8.34 27.34 -8 27 C-7.72013733 23.77945916 -7.76814033 20.54374715 -7.75 17.3125 C-7.729375 16.41337891 -7.70875 15.51425781 -7.6875 14.58789062 C-7.65627769 9.26839023 -8.07863077 5.6357517 -11 1 C-7.31245243 1.49831724 -5.39509338 2.10067643 -3 5 C-0.7763932 3.0745356 -0.7763932 3.0745356 0 0 Z " fill="#F5E0BF" transform="translate(259,297)"/>
<path d="M0 0 C0 0.66 0 1.32 0 2 C0.99 2.33 1.98 2.66 3 3 C5.91456902 9.84222353 5.9464806 18.56900783 4 25.625 C3.67 26.40875 3.34 27.1925 3 28 C2.01 27.67 1.02 27.34 0 27 C-0.33 19.41 -0.66 11.82 -1 4 C-3.31 4 -5.62 4 -8 4 C-8.33 3.01 -8.66 2.02 -9 1 C-6.04335481 -0.4783226 -3.25770263 -0.06032783 0 0 Z " fill="#86B9D8" transform="translate(245,297)"/>
<path d="M0 0 C3.125 2.0625 3.125 2.0625 5 5 C5.625 8.5 5.625 8.5 5 12 C2.625 14.9375 2.625 14.9375 0 17 C-0.66 17 -1.32 17 -2 17 C-1.67 16.01 -1.34 15.02 -1 14 C-0.01 14 0.98 14 2 14 C2 10.37 2 6.74 2 3 C-0.475 2.01 -0.475 2.01 -3 1 C-3 2.32 -3 3.64 -3 5 C-2.34 5 -1.68 5 -1 5 C-1.33 6.98 -1.66 8.96 -2 11 C-6.455 11.495 -6.455 11.495 -11 12 C-10.67 8.7 -10.34 5.4 -10 2 C-10.66 1.67 -11.32 1.34 -12 1 C-8.27210896 -0.86394552 -4.05962028 -0.55445363 0 0 Z " fill="#90BACF" transform="translate(294,348)"/>
<path d="M0 0 C2.31 0.33 4.62 0.66 7 1 C6.67 8.92 6.34 16.84 6 25 C4.35 24.67 2.7 24.34 1 24 C0.67 16.08 0.34 8.16 0 0 Z " fill="#86BAD6" transform="translate(305,350)"/>
<path d="M0 0 C4.875 1.75 4.875 1.75 6 4 C6.203125 6.05859375 6.203125 6.05859375 6.25 8.4375 C6.27578125 9.21996094 6.3015625 10.00242187 6.328125 10.80859375 C5.92823089 13.47931509 5.05300878 14.31977439 3 16 C3 14.68 3 13.36 3 12 C3.66 12 4.32 12 5 12 C5 9.69 5 7.38 5 5 C1.95865509 6.66924071 1.95865509 6.66924071 1 9 C0 11 0 11 -3 13 C-5.33199388 13.07905064 -7.66832622 13.08798769 -10 13 C-11.35439668 10.29120665 -11.06501451 7.99066732 -11 5 C-7.78548731 3.39274365 -4.56387464 3.94251815 -1 4 C-0.67 2.68 -0.34 1.36 0 0 Z " fill="#98BAC8" transform="translate(352,297)"/>
<path d="M0 0 C0.95003906 -0.01675781 1.90007812 -0.03351563 2.87890625 -0.05078125 C5.4375 0.3125 5.4375 0.3125 8.4375 3.3125 C2.4975 2.3225 2.4975 2.3225 -3.5625 1.3125 C-3.2325 2.3025 -2.9025 3.2925 -2.5625 4.3125 C-0.9125 4.6425 0.7375 4.9725 2.4375 5.3125 C2.7675 7.6225 3.0975 9.9325 3.4375 12.3125 C0.70502652 13.67873674 -1.54448902 13.440926 -4.5625 13.3125 C-6.53072886 11.34427114 -6.22498381 7.96441291 -6.5625 5.3125 C-7.2225 5.3125 -7.8825 5.3125 -8.5625 5.3125 C-8.8925 6.9625 -9.2225 8.6125 -9.5625 10.3125 C-10.2225 10.3125 -10.8825 10.3125 -11.5625 10.3125 C-11.5625 14.2725 -11.5625 18.2325 -11.5625 22.3125 C-11.8925 22.3125 -12.2225 22.3125 -12.5625 22.3125 C-12.64415496 20.10479195 -12.70198488 17.89619575 -12.75 15.6875 C-12.80220703 13.84285156 -12.80220703 13.84285156 -12.85546875 11.9609375 C-12.53467773 7.96601994 -11.74503481 5.65741853 -9.5625 2.3125 C-6.52789796 0.07681654 -3.70483893 0.01512179 0 0 Z " fill="#9ABAC6" transform="translate(270.5625,295.6875)"/>
<path d="M0 0 C8.24550898 -0.48502994 8.24550898 -0.48502994 11.625 1.6875 C13 4 13 4 12.9375 6.625 C12 9 12 9 9 11 C5.97670744 11.2610788 3.04123758 11.08815181 0 11 C0 7.37 0 3.74 0 0 Z " fill="#E9DDC4" transform="translate(179,359)"/>
<path d="M0 0 C0.04898438 1.30195313 0.09796875 2.60390625 0.1484375 3.9453125 C0.22350629 5.67189471 0.29905233 7.39845622 0.375 9.125 C0.4059375 9.9809375 0.436875 10.836875 0.46875 11.71875 C0.68885018 16.4875872 1.19160483 20.51576807 3 25 C0 23 0 23 -0.66015625 20.43359375 C-0.79292969 19.44488281 -0.92570313 18.45617187 -1.0625 17.4375 C-1.42179066 14.51623188 -1.42179066 14.51623188 -2 12 C-2.66 11.67 -3.32 11.34 -4 11 C-4 13.97 -4 16.94 -4 20 C-4.99 20 -5.98 20 -7 20 C-6.67 19.34 -6.34 18.68 -6 18 C-5.41585298 14.62693382 -5.41585298 14.62693382 -6 11 C-7.81871731 8.86844211 -9.65987943 7.60883289 -12 6 C-8.20871238 0.48539982 -6.9785787 -0.39454862 0 0 Z " fill="#F2E1C1" transform="translate(205,350)"/>
<path d="M0 0 C1.4540625 0.0309375 1.4540625 0.0309375 2.9375 0.0625 C4.15408421 2.49566842 4.12578706 4.21151059 4.21875 6.9296875 C4.25613281 7.89777344 4.29351562 8.86585938 4.33203125 9.86328125 C4.38423828 11.38501953 4.38423828 11.38501953 4.4375 12.9375 C4.50655684 14.93503301 4.57933084 16.9324418 4.65625 18.9296875 C4.68654297 19.81769043 4.71683594 20.70569336 4.74804688 21.62060547 C4.85234676 24.05089814 4.85234676 24.05089814 5.58007812 26.25830078 C5.69802734 26.85368652 5.81597656 27.44907227 5.9375 28.0625 C5.2775 28.7225 4.6175 29.3825 3.9375 30.0625 C1.59867862 29.77014733 -0.73534 29.43650786 -3.0625 29.0625 C-3.7225 29.3925 -4.3825 29.7225 -5.0625 30.0625 C-6.70392541 30.20890501 -8.3523141 30.28346589 -10 30.3125 C-10.87527344 30.33828125 -11.75054687 30.3640625 -12.65234375 30.390625 C-15.4818869 30.00540357 -16.31382925 29.25555243 -18.0625 27.0625 C-16.39638095 27.019779 -14.72867115 27.02186168 -13.0625 27.0625 C-12.7325 27.3925 -12.4025 27.7225 -12.0625 28.0625 C-9.39191149 28.20365161 -6.73817762 28.10497107 -4.0625 28.0625 C-3.7325 27.0725 -3.4025 26.0825 -3.0625 25.0625 C-1.0825 26.0525 0.8975 27.0425 2.9375 28.0625 C2.4425 15.6875 2.4425 15.6875 1.9375 3.0625 C0.6175 3.0625 -0.7025 3.0625 -2.0625 3.0625 C-2.3925 9.9925 -2.7225 16.9225 -3.0625 24.0625 C-8.0625 25.0625 -8.0625 25.0625 -11.0625 23.0625 C-9.0825 22.7325 -7.1025 22.4025 -5.0625 22.0625 C-5.03744385 21.43158447 -5.0123877 20.80066895 -4.98657227 20.15063477 C-4.87095863 17.30853175 -4.74807684 14.46678917 -4.625 11.625 C-4.56602539 10.13516602 -4.56602539 10.13516602 -4.50585938 8.61523438 C-4.46396484 7.67099609 -4.42207031 6.72675781 -4.37890625 5.75390625 C-4.34224854 4.87935791 -4.30559082 4.00480957 -4.26782227 3.10375977 C-3.93272746 -0.22766431 -3.44213818 0.07024772 0 0 Z " fill="#A0BBC3" transform="translate(226.0625,346.9375)"/>
<path d="M0 0 C2.62063185 0.36146646 3.7743659 0.76124368 5.61621094 2.71020508 C7.29817609 5.49340041 7.36040271 7.15310417 7.328125 10.38671875 C7.32296875 11.40701172 7.3178125 12.42730469 7.3125 13.47851562 C7.291875 14.53748047 7.27125 15.59644531 7.25 16.6875 C7.24484375 17.75806641 7.2396875 18.82863281 7.234375 19.93164062 C7.15407791 27.84592209 7.15407791 27.84592209 6 29 C4.00041636 29.04080783 1.99954746 29.04254356 0 29 C-1.15123825 26.69752349 -1.13836313 25.31475954 -1.17578125 22.75390625 C-1.19962891 21.91666016 -1.22347656 21.07941406 -1.24804688 20.21679688 C-1.29091485 18.45141574 -1.32222046 16.68571489 -1.34179688 14.91992188 C-1.34894416 9.89479586 -1.34894416 9.89479586 -4.04296875 5.90234375 C-4.68878906 5.60457031 -5.33460938 5.30679687 -6 5 C-1.25 5.875 -1.25 5.875 1 7 C1 13.6 1 20.2 1 27 C2.32 27 3.64 27 5 27 C4.8612119 23.39552566 4.71276065 19.79151288 4.5625 16.1875 C4.52318359 15.16333984 4.48386719 14.13917969 4.44335938 13.08398438 C4.38051758 11.60961914 4.38051758 11.60961914 4.31640625 10.10546875 C4.27974854 9.19949951 4.24309082 8.29353027 4.20532227 7.36010742 C4.0791795 4.84951218 4.0791795 4.84951218 3 2 C2.01 2 1.02 2 0 2 C0 1.34 0 0.68 0 0 Z " fill="#99B8C3" transform="translate(212,297)"/>
<path d="M0 0 C0 0.33 0 0.66 0 1 C-5.57067277 2.59162079 -10.21101581 3.20674944 -16 3 C-15.67 3.99 -15.34 4.98 -15 6 C-14.85284801 7.62567079 -14.75278133 9.25586857 -14.68359375 10.88671875 C-14.64169922 11.82451172 -14.59980469 12.76230469 -14.55664062 13.72851562 C-14.51732422 14.70498047 -14.47800781 15.68144531 -14.4375 16.6875 C-14.39431641 17.67556641 -14.35113281 18.66363281 -14.30664062 19.68164062 C-14.20058346 22.12095546 -14.09852286 24.56037113 -14 27 C-13.01 27.33 -12.02 27.66 -11 28 C-10.67 21.4 -10.34 14.8 -10 8 C-9.67 8 -9.34 8 -9 8 C-8.97112186 11.47914941 -8.95324313 14.95826831 -8.9375 18.4375 C-8.92912109 19.43072266 -8.92074219 20.42394531 -8.91210938 21.44726562 C-8.90888672 22.39150391 -8.90566406 23.33574219 -8.90234375 24.30859375 C-8.89710693 25.18314209 -8.89187012 26.05769043 -8.88647461 26.95874023 C-9 29 -9 29 -10 30 C-11.99958364 30.04080783 -14.00045254 30.04254356 -16 30 C-18.19173639 25.61652721 -17.45148676 19.76269911 -17.625 14.9375 C-17.6765625 13.71482422 -17.728125 12.49214844 -17.78125 11.23242188 C-17.82507813 10.07162109 -17.86890625 8.91082031 -17.9140625 7.71484375 C-17.9548291 6.64355225 -17.9955957 5.57226074 -18.03759766 4.46850586 C-18 2 -18 2 -17 1 C-14.66666667 1 -12.33333333 1 -10 1 C-6.78548731 -0.60725635 -3.56387464 -0.05748185 0 0 Z " fill="#95B7C5" transform="translate(244,296)"/>
<path d="M0 0 C0 4.95 0 9.9 0 15 C-2.97 14.01 -5.94 13.02 -9 12 C-9 8.7 -9 5.4 -9 2 C-2.25 0 -2.25 0 0 0 Z " fill="#FBE0B9" transform="translate(333,304)"/>
<path d="M0 0 C1.423125 -0.061875 2.84625 -0.12375 4.3125 -0.1875 C5.51326172 -0.23970703 5.51326172 -0.23970703 6.73828125 -0.29296875 C9 0 9 0 10.7734375 1.3515625 C12.48891217 3.65707304 12.35928679 5.19756307 12 8 C10 10 10 10 7.6171875 10.1953125 C6.71226562 10.17210937 5.80734375 10.14890625 4.875 10.125 C2.461875 10.063125 2.461875 10.063125 0 10 C0 6.7 0 3.4 0 0 Z " fill="#F2DFC1" transform="translate(152,308)"/>
<path d="M0 0 C3.63766945 1.91456287 5.4994229 3.15573805 7 7 C7.25878906 9.25830078 7.25878906 9.25830078 7.265625 11.6953125 C7.26820313 12.57574219 7.27078125 13.45617187 7.2734375 14.36328125 C7.26570312 15.27464844 7.25796875 16.18601562 7.25 17.125 C7.25773438 18.04410156 7.26546875 18.96320313 7.2734375 19.91015625 C7.27085937 20.78800781 7.26828125 21.66585938 7.265625 22.5703125 C7.26336914 23.37227051 7.26111328 24.17422852 7.25878906 25.00048828 C7 27 7 27 5 29 C1.875 29.125 1.875 29.125 -1 29 C-1.02505615 28.40461426 -1.0501123 27.80922852 -1.07592773 27.19580078 C-1.19177494 24.50530864 -1.31455196 21.8151766 -1.4375 19.125 C-1.47681641 18.18785156 -1.51613281 17.25070312 -1.55664062 16.28515625 C-1.61948242 14.94130859 -1.61948242 14.94130859 -1.68359375 13.5703125 C-1.72025146 12.74289551 -1.75690918 11.91547852 -1.79467773 11.06298828 C-1.88238327 8.93820571 -1.88238327 8.93820571 -3 7 C-5.01669827 5.86649466 -5.01669827 5.86649466 -7 5 C-4.625 4.875 -4.625 4.875 -2 5 C0 7 0 7 0.22705078 9.06298828 C0.21657715 9.89040527 0.20610352 10.71782227 0.1953125 11.5703125 C0.18886719 12.46621094 0.18242187 13.36210937 0.17578125 14.28515625 C0.15902344 15.22230469 0.14226562 16.15945313 0.125 17.125 C0.11597656 18.06988281 0.10695312 19.01476562 0.09765625 19.98828125 C0.07404522 22.32577292 0.04111516 24.66276123 0 27 C0.99 27 1.98 27 3 27 C5.03060561 19.38522897 4.73618811 10.41473197 2 3 C1.34 2.67 0.68 2.34 0 2 C0 1.34 0 0.68 0 0 Z " fill="#9ABAC6" transform="translate(245,297)"/>
<path d="M0 0 C2.125 0.375 2.125 0.375 4 1 C2.7934375 1.6496875 2.7934375 1.6496875 1.5625 2.3125 C-1.27846354 3.80474002 -1.27846354 3.80474002 -2 7 C-2.14854388 9.80519407 -2.23104204 12.56922127 -2.25 15.375 C-2.270625 16.13039063 -2.29125 16.88578125 -2.3125 17.6640625 C-2.3449641 22.30642831 -1.9040642 25.16357835 1 29 C-0.32 28.67 -1.64 28.34 -3 28 C-3 27.34 -3 26.68 -3 26 C-3.66 26 -4.32 26 -5 26 C-5.33 27.65 -5.66 29.3 -6 31 C-11.02125926 31.77916092 -14.97703996 32.13016601 -20 31 C-20 30.34 -20 29.68 -20 29 C-16.04 29 -12.08 29 -8 29 C-7.67 27.35 -7.34 25.7 -7 24 C-9.31 23.67 -11.62 23.34 -14 23 C-14 22.67 -14 22.34 -14 22 C-11.03 22.33 -8.06 22.66 -5 23 C-5.05220703 21.35451172 -5.05220703 21.35451172 -5.10546875 19.67578125 C-5.13361865 18.22136955 -5.16091752 16.7669412 -5.1875 15.3125 C-5.21263672 14.59126953 -5.23777344 13.87003906 -5.26367188 13.12695312 C-5.32689443 8.51170654 -4.81857806 5.67848323 -2 2 C-1.34 1.34 -0.68 0.68 0 0 Z " fill="#DFDDCC" transform="translate(278,347)"/>
<path d="M0 0 C1.79244141 0.01740234 1.79244141 0.01740234 3.62109375 0.03515625 C5.41740234 0.04869141 5.41740234 0.04869141 7.25 0.0625 C8.17683594 0.07410156 9.10367188 0.08570313 10.05859375 0.09765625 C10.38859375 3.06765625 10.71859375 6.03765625 11.05859375 9.09765625 C11.71859375 9.09765625 12.37859375 9.09765625 13.05859375 9.09765625 C13.38859375 10.08765625 13.71859375 11.07765625 14.05859375 12.09765625 C14.71859375 11.76765625 15.37859375 11.43765625 16.05859375 11.09765625 C14.66274583 14.4709554 13.13493764 16.13998287 10.05859375 18.09765625 C6.29559001 19.35199083 2.78648466 19.20461047 -1.12890625 19.16015625 C-1.87849609 19.15564453 -2.62808594 19.15113281 -3.40039062 19.14648438 C-5.24743008 19.13471979 -7.09442838 19.1167849 -8.94140625 19.09765625 C-8.94140625 18.76765625 -8.94140625 18.43765625 -8.94140625 18.09765625 C-7.52988281 18.02417969 -7.52988281 18.02417969 -6.08984375 17.94921875 C-4.22199219 17.83707031 -4.22199219 17.83707031 -2.31640625 17.72265625 C-1.08664063 17.65304687 0.143125 17.5834375 1.41015625 17.51171875 C4.96119942 17.10870957 7.81701067 16.60650122 11.05859375 15.09765625 C12.02736432 13.06522077 12.02736432 13.06522077 12.05859375 11.09765625 C11.49011719 11.24203125 10.92164063 11.38640625 10.3359375 11.53515625 C5.4359717 12.7131113 1.09406255 13.31193152 -3.94140625 13.09765625 C-3.96827178 11.11856227 -3.98774 9.13936654 -4.00390625 7.16015625 C-4.01550781 6.05800781 -4.02710938 4.95585937 -4.0390625 3.8203125 C-3.90306016 0.02856713 -3.81984841 0.126821 0 0 Z M-2.94140625 1.09765625 C-2.94140625 4.39765625 -2.94140625 7.69765625 -2.94140625 11.09765625 C-0.52828125 11.15953125 -0.52828125 11.15953125 1.93359375 11.22265625 C2.83851563 11.24585938 3.7434375 11.2690625 4.67578125 11.29296875 C7.24666369 11.34090461 7.24666369 11.34090461 9.05859375 9.09765625 C9.41788054 6.29521932 9.54750592 4.75472929 7.83203125 2.44921875 C5.53681609 0.70000191 4.22128623 0.78623484 1.37109375 0.91015625 C-0.05203125 0.97203125 -1.47515625 1.03390625 -2.94140625 1.09765625 Z " fill="#9BBBC7" transform="translate(154.94140625,306.90234375)"/>
<path d="M0 0 C0.66 0 1.32 0 2 0 C2.94466756 3.24078125 3.19098828 6.27225655 3.31640625 9.640625 C3.37924805 11.24550781 3.37924805 11.24550781 3.44335938 12.8828125 C3.48267578 13.99398438 3.52199219 15.10515625 3.5625 16.25 C3.60568359 17.37664062 3.64886719 18.50328125 3.69335938 19.6640625 C3.79932015 22.44258954 3.90139142 25.22120391 4 28 C5.98 27.67 7.96 27.34 10 27 C10.33 20.07 10.66 13.14 11 6 C11.33 6 11.66 6 12 6 C12.33 13.26 12.66 20.52 13 28 C7 30 7 30 4.75 29.875 C2.35171129 28.67585564 1.99988642 27.46327159 1 25 C0.69702148 22.64990234 0.69702148 22.64990234 0.62109375 20.0859375 C0.58693359 19.16039062 0.55277344 18.23484375 0.51757812 17.28125 C0.49115234 16.3221875 0.46472656 15.363125 0.4375 14.375 C0.37768519 12.46601673 0.31407155 10.55714752 0.24609375 8.6484375 C0.22216553 7.80458496 0.1982373 6.96073242 0.17358398 6.09130859 C0.12558575 3.94142511 0.12558575 3.94142511 -1 2 C-0.67 1.34 -0.34 0.68 0 0 Z " fill="#EDE2C9" transform="translate(224,298)"/>
<path d="M0 0 C1.64574566 -0.02688151 3.29161413 -0.04634123 4.9375 -0.0625 C5.85402344 -0.07410156 6.77054688 -0.08570313 7.71484375 -0.09765625 C10 0 10 0 11 1 C11.25 3.9375 11.25 3.9375 11 7 C7.91111478 9.05925681 7.29064073 9.2390374 3.8125 9.125 C1.9253125 9.063125 1.9253125 9.063125 0 9 C0 6.03 0 3.06 0 0 Z " fill="#ECDFC4" transform="translate(179,343)"/>
<path d="M0 0 C3.3 0 6.6 0 10 0 C11.31343284 5.37313433 11.31343284 5.37313433 10.0625 7.875 C6.75632849 9.67836628 3.72581793 9.18323695 0 9 C0 6.03 0 3.06 0 0 Z " fill="#EEDFC4" transform="translate(152,292)"/>
<path d="M0 0 C1.32 0 2.64 0 4 0 C4 7.26 4 14.52 4 22 C2.68 22 1.36 22 0 22 C-0.19590444 18.52125243 -0.38031592 15.04199096 -0.5625 11.5625 C-0.61857422 10.56927734 -0.67464844 9.57605469 -0.73242188 8.55273438 C-0.78076172 7.60849609 -0.82910156 6.66425781 -0.87890625 5.69140625 C-0.9260376 4.81685791 -0.97316895 3.94230957 -1.02172852 3.04125977 C-1 1 -1 1 0 0 Z " fill="#86B9D7" transform="translate(213,302)"/>
<path d="M0 0 C5.55192838 3.72735098 5.55192838 3.72735098 6.66186523 6.87988281 C7.02254298 9.14134533 7.11312844 11.25699107 7.09765625 13.546875 C7.09443359 14.39121094 7.09121094 15.23554688 7.08789062 16.10546875 C7.07951172 16.97816406 7.07113281 17.85085938 7.0625 18.75 C7.05798828 19.63816406 7.05347656 20.52632813 7.04882812 21.44140625 C7.037074 23.62767329 7.02064249 25.81380179 7 28 C6.34 28 5.68 28 5 28 C4.98541748 27.42032471 4.97083496 26.84064941 4.95581055 26.2434082 C4.88101472 23.59912447 4.78446102 20.95605998 4.6875 18.3125 C4.66494141 17.40048828 4.64238281 16.48847656 4.61914062 15.54882812 C4.37221136 8.76966364 4.37221136 8.76966364 1 3 C-4.24118425 1.25293858 -9.68833136 1.67208284 -15 3 C-15 2.34 -15 1.68 -15 1 C-5.49295775 -2.92957746 -5.49295775 -2.92957746 0 0 Z " fill="#EAE3CB" transform="translate(324,346)"/>
<path d="M0 0 C1.32 0.33 2.64 0.66 4 1 C3.34 1 2.68 1 2 1 C1.97532241 6.37515933 1.95715072 11.75028585 1.94506836 17.12548828 C1.94003263 18.95492121 1.93320373 20.78435009 1.92456055 22.61376953 C1.91246176 25.23991898 1.90676417 27.86601532 1.90234375 30.4921875 C1.89718246 31.31306854 1.89202118 32.13394958 1.88670349 32.97970581 C1.77648126 37.12211844 1.77648126 37.12211844 3 41 C5.52113092 41.05447822 8.0410585 41.09389852 10.5625 41.125 C11.26697266 41.14175781 11.97144531 41.15851563 12.69726562 41.17578125 C17.51891822 41.22022044 21.42297438 40.52768004 26 39 C26 38.34 26 37.68 26 37 C26.66 37.33 27.32 37.66 28 38 C27.67 38.66 27.34 39.32 27 40 C26.34 40 25.68 40 25 40 C25 40.66 25 41.32 25 42 C22.08196048 42.97267984 20.18599867 43.12881796 17.1484375 43.1328125 C16.21515625 43.13410156 15.281875 43.13539063 14.3203125 43.13671875 C13.34835938 43.13285156 12.37640625 43.12898438 11.375 43.125 C10.3953125 43.12886719 9.415625 43.13273437 8.40625 43.13671875 C7.47554687 43.13542969 6.54484375 43.13414062 5.5859375 43.1328125 C4.30275635 43.13112061 4.30275635 43.13112061 2.99365234 43.12939453 C1 43 1 43 0 42 C-0.08874135 38.89748799 -0.11518455 35.8173188 -0.09765625 32.71484375 C-0.0962413 31.78402481 -0.09482635 30.85320587 -0.09336853 29.8941803 C-0.08775172 26.90858809 -0.0751964 23.92306971 -0.0625 20.9375 C-0.05748716 18.91862087 -0.05292388 16.89974057 -0.04882812 14.88085938 C-0.03777683 9.92054428 -0.02050095 4.96028468 0 0 Z " fill="#E3E1D1" transform="translate(170,335)"/>
<path d="M0 0 C2.31 0.33 4.62 0.66 7 1 C7 2.65 7 4.3 7 6 C6.195625 6.12375 5.39125 6.2475 4.5625 6.375 C3.2940625 6.684375 3.2940625 6.684375 2 7 C1.67 7.66 1.34 8.32 1 9 C-2.375 8.75 -2.375 8.75 -6 8 C-7.4375 5.9375 -7.4375 5.9375 -8 4 C-7 3 -7 3 -3.4375 2.9375 C-2.303125 2.958125 -1.16875 2.97875 0 3 C0 2.01 0 1.02 0 0 Z " fill="#E9E2CB" transform="translate(297,168)"/>
<path d="M0 0 C2.31 0 4.62 0 7 0 C7.94466756 3.24078125 8.19098828 6.27225655 8.31640625 9.640625 C8.37924805 11.24550781 8.37924805 11.24550781 8.44335938 12.8828125 C8.48267578 13.99398438 8.52199219 15.10515625 8.5625 16.25 C8.60568359 17.37664062 8.64886719 18.50328125 8.69335938 19.6640625 C8.79932015 22.44258954 8.90139142 25.22120391 9 28 C11.64 27.34 14.28 26.68 17 26 C16.67 27.32 16.34 28.64 16 30 C10.50620182 30.36625321 10.50620182 30.36625321 8.33276367 28.79370117 C6.60647967 26.47038031 6.57549176 24.9912281 6.48828125 22.11328125 C6.45283203 21.17548828 6.41738281 20.23769531 6.38085938 19.27148438 C6.35830078 18.29501953 6.33574219 17.31855469 6.3125 16.3125 C6.26125977 14.83040039 6.26125977 14.83040039 6.20898438 13.31835938 C6.12649462 10.87901947 6.05734932 8.44003937 6 6 C5.01 8.31 4.02 10.62 3 13 C2 11 2 11 2.0625 7.625 C2.00448314 4.2600219 1.76786084 2.76228257 0 0 Z " fill="#ECE1C7" transform="translate(296,349)"/>
<path d="M0 0 C3.125 0.375 3.125 0.375 6 1 C6 3.97 6 6.94 6 10 C8.31 10 10.62 10 13 10 C13.38133299 11.9914056 13.71325582 13.99279077 14 16 C13 17 13 17 10.4375 17.0625 C9.633125 17.041875 8.82875 17.02125 8 17 C9.32 16.67 10.64 16.34 12 16 C12 15.01 12 14.02 12 13 C10.68 13 9.36 13 8 13 C8 12.34 8 11.68 8 11 C7.01 11 6.02 11 5 11 C5 8.03 5 5.06 5 2 C3.35 2.33 1.7 2.66 0 3 C-0.33 12.24 -0.66 21.48 -1 31 C-1.33 31 -1.66 31 -2 31 C-2.04939115 26.90661348 -2.08571501 22.81334202 -2.10986328 18.71972656 C-2.11992877 17.32679219 -2.13358234 15.93387898 -2.15087891 14.54101562 C-2.1751022 12.5404564 -2.18540814 10.53974385 -2.1953125 8.5390625 C-2.20578613 7.33459473 -2.21625977 6.13012695 -2.22705078 4.88916016 C-2 2 -2 2 0 0 Z " fill="#ACC1C4" transform="translate(316,287)"/>
<path d="M0 0 C0.33 0 0.66 0 1 0 C1.33 6.27 1.66 12.54 2 19 C3.32 19.33 4.64 19.66 6 20 C6 13.4 6 6.8 6 0 C6.66 0 7.32 0 8 0 C8.02895225 3.29164829 8.0467823 6.58326399 8.0625 9.875 C8.07087891 10.81214844 8.07925781 11.74929688 8.08789062 12.71484375 C8.09111328 13.61074219 8.09433594 14.50664062 8.09765625 15.4296875 C8.10289307 16.25710449 8.10812988 17.08452148 8.11352539 17.93701172 C8 20 8 20 7 22 C4.69 22 2.38 22 0 22 C0 14.74 0 7.48 0 0 Z " fill="#9CB8C1" transform="translate(195,304)"/>
<path d="M0 0 C0.33 0 0.66 0 1 0 C1.02505615 0.85754883 1.0501123 1.71509766 1.07592773 2.59863281 C1.17123412 5.7893437 1.27045751 8.97990219 1.37231445 12.17041016 C1.4155455 13.54959378 1.45722866 14.92882685 1.49731445 16.30810547 C1.55530403 18.29406938 1.61937723 20.27985269 1.68359375 22.265625 C1.72025146 23.45961914 1.75690918 24.65361328 1.79467773 25.88378906 C1.96208994 28.42463255 2.26317859 30.5771424 3 33 C3.66 33 4.32 33 5 33 C5 33.66 5 34.32 5 35 C9.95 34.505 9.95 34.505 15 34 C15 33.01 15 32.02 15 31 C15.66 31 16.32 31 17 31 C17.042721 32.66611905 17.04063832 34.33382885 17 36 C15.35843264 37.64156736 13.50784199 37.28815992 11.25 37.375 C7.18962832 37.35176468 6.28359537 37.2199311 2.9375 34.625 C-0.10053974 30.50894615 -0.11914445 28.35637889 -0.09765625 23.2421875 C-0.0962413 22.57913605 -0.09482635 21.91608459 -0.09336853 21.23294067 C-0.08776754 19.11358137 -0.075215 16.99432741 -0.0625 14.875 C-0.05748512 13.43880361 -0.05292219 12.00260556 -0.04882812 10.56640625 C-0.03779782 7.04423655 -0.02053259 3.52212855 0 0 Z " fill="#A4BCC2" transform="translate(254,340)"/>
<path d="M0 0 C0 0.99 0 1.98 0 3 C-0.804375 2.814375 -1.60875 2.62875 -2.4375 2.4375 C-3.7059375 2.2209375 -3.7059375 2.2209375 -5 2 C-6.87066038 3.87066038 -6.13051837 7.0256481 -6.1328125 9.51953125 C-6.13424759 10.50200081 -6.13424759 10.50200081 -6.13571167 11.50431824 C-6.13639355 12.8939117 -6.13453873 14.28350832 -6.13037109 15.6730957 C-6.12504844 17.79320524 -6.13030242 19.91310044 -6.13671875 22.03320312 C-6.13605747 23.38281297 -6.13477527 24.73242267 -6.1328125 26.08203125 C-6.13112061 27.92631714 -6.13112061 27.92631714 -6.12939453 29.80786133 C-6.02366972 32.41607257 -5.77559264 34.52726896 -5 37 C-5.99 37 -6.98 37 -8 37 C-8.33 28.09 -8.66 19.18 -9 10 C-9.99 10.495 -9.99 10.495 -11 11 C-10.54177532 7.53058454 -10.10868317 4.32604951 -9 1 C-5.8035914 -0.06546953 -3.34252724 -0.07427838 0 0 Z " fill="#F0E1C5" transform="translate(261,337)"/>
<path d="M0 0 C0.33 0 0.66 0 1 0 C1 2.64 1 5.28 1 8 C1.66 8.33 2.32 8.66 3 9 C2.38125 9.226875 1.7625 9.45375 1.125 9.6875 C-1.61410209 11.37929835 -2.05024472 12.99244161 -3 16 C-4.04449911 12.86650268 -3.93423645 12.01031744 -3 9 C-9.70711285 10.04798638 -15.69500999 11.49974534 -22 14 C-23.65672637 14.37966646 -25.32070245 14.73760976 -27 15 C-22.28630445 9.55513715 -14.34637477 7.94514406 -7.4375 7.3125 C-6.63183594 7.26738281 -5.82617188 7.22226563 -4.99609375 7.17578125 C-2.92747037 7.11666335 -2.92747037 7.11666335 -1 6 C-0.34227572 2.97065509 -0.34227572 2.97065509 0 0 Z " fill="#A2BEC6" transform="translate(229,190)"/>
<path d="M0 0 C2.475 0.495 2.475 0.495 5 1 C5 2.65 5 4.3 5 6 C6.11375 6.103125 7.2275 6.20625 8.375 6.3125 C10.169375 6.6528125 10.169375 6.6528125 12 7 C14 10 14 10 14 13 C12.68 13 11.36 13 10 13 C10 12.34 10 11.68 10 11 C8.63875 10.62875 8.63875 10.62875 7.25 10.25 C3.81758199 8.92983923 2.18171477 7.93692372 0 5 C-0.25 2.25 -0.25 2.25 0 0 Z " fill="#86B9D6" transform="translate(288,302)"/>
<path d="M0 0 C0.99 0 1.98 0 3 0 C3 2.31 3 4.62 3 7 C2.34 7 1.68 7 1 7 C1 8.32 1 9.64 1 11 C-3.29 11 -7.58 11 -12 11 C-12 10.34 -12 9.68 -12 9 C-11.45730469 8.80664062 -10.91460937 8.61328125 -10.35546875 8.4140625 C-9.64003906 8.15367187 -8.92460937 7.89328125 -8.1875 7.625 C-7.47980469 7.36976563 -6.77210938 7.11453125 -6.04296875 6.8515625 C-3.75226641 5.9734231 -3.75226641 5.9734231 -1 4 C-0.27617533 1.94074861 -0.27617533 1.94074861 0 0 Z " fill="#86BAD6" transform="translate(354,302)"/>
<path d="M0 0 C-0.99 0.66 -1.98 1.32 -3 2 C-2.67 2.99 -2.34 3.98 -2 5 C0.50447516 6.21869929 0.50447516 6.21869929 3 7 C2.01 7.495 2.01 7.495 1 8 C1 8.99 1 9.98 1 11 C1.69867188 10.96519531 2.39734375 10.93039063 3.1171875 10.89453125 C4.48230469 10.85392578 4.48230469 10.85392578 5.875 10.8125 C6.77992188 10.77769531 7.68484375 10.74289063 8.6171875 10.70703125 C9.79667969 10.85205078 9.79667969 10.85205078 11 11 C11.99 12.485 11.99 12.485 13 14 C10.89299274 13.79861699 8.7892489 13.56287227 6.6875 13.3125 C4.92986328 13.12107422 4.92986328 13.12107422 3.13671875 12.92578125 C0 12 0 12 -1.8125 9.5 C-2.204375 8.675 -2.59625 7.85 -3 7 C-6.58803373 4.2093071 -10.66039979 4.85534666 -15 5 C-15 4.34 -15 3.68 -15 3 C-12.03 3 -9.06 3 -6 3 C-6.99 1.68 -7.98 0.36 -9 -1 C-5.79937313 -2.60031344 -3.27728194 -1.03173691 0 0 Z " fill="#E9E3CE" transform="translate(293,170)"/>
<path d="M0 0 C3.3 0 6.6 0 10 0 C10 0.33 10 0.66 10 1 C7.03 1 4.06 1 1 1 C1.33 1.99 1.66 2.98 2 4 C2.84304688 3.97679687 3.68609375 3.95359375 4.5546875 3.9296875 C6.19824219 3.90261719 6.19824219 3.90261719 7.875 3.875 C9.51082031 3.84019531 9.51082031 3.84019531 11.1796875 3.8046875 C14 4 14 4 16 6 C15.8125 8 15.8125 8 15 10 C11.36804504 12.42130331 9.61650652 12.21022785 5.3125 12.125 C4.13300781 12.10695313 2.95351563 12.08890625 1.73828125 12.0703125 C0.83464844 12.04710937 -0.06898438 12.02390625 -1 12 C-1 11.67 -1 11.34 -1 11 C2.63 11 6.26 11 10 11 C10 10.34 10 9.68 10 9 C11.32 9 12.64 9 14 9 C14 8.01 14 7.02 14 6 C13.505 6.165 13.01 6.33 12.5 6.5 C8.46790828 7.30641834 3.73974432 7.86987216 0 6 C0 4.02 0 2.04 0 0 Z " fill="#A3BCC5" transform="translate(342,314)"/>
<path d="M0 0 C1.32 0 2.64 0 4 0 C5.35439668 2.70879335 5.06501451 5.00933268 5 8 C5.66 8.33 6.32 8.66 7 9 C4.07175348 9.97608217 2.04386724 10.08226668 -1 10 C1.475 11.98 1.475 11.98 4 14 C3.67 14.66 3.34 15.32 3 16 C-1 14 -5 12 -9 10 C-9 9.01 -9 8.02 -9 7 C-5.37 7 -1.74 7 2 7 C2.33 6.01 2.66 5.02 3 4 C1.62831762 1.80961577 1.62831762 1.80961577 0 0 Z " fill="#E9E0C9" transform="translate(304,296)"/>
<path d="M0 0 C0.66 0.33 1.32 0.66 2 1 C0 3 0 3 -1.97119141 3.22705078 C-2.75671387 3.21657715 -3.54223633 3.20610352 -4.3515625 3.1953125 C-5.20234375 3.18886719 -6.053125 3.18242187 -6.9296875 3.17578125 C-8.26386719 3.15064453 -8.26386719 3.15064453 -9.625 3.125 C-10.5221875 3.11597656 -11.419375 3.10695312 -12.34375 3.09765625 C-14.56276586 3.0740497 -16.78125077 3.0411231 -19 3 C-19.45729492 3.92244507 -19.45729492 3.92244507 -19.92382812 4.86352539 C-21.13153813 7.26113661 -22.11027512 9.07297792 -24 11 C-27.03125 11.72265625 -27.03125 11.72265625 -30.5 12.0625 C-35.07058355 12.3841097 -35.07058355 12.3841097 -38.90625 14.55859375 C-39.2671875 15.03425781 -39.628125 15.50992188 -40 16 C-40.66 15.67 -41.32 15.34 -42 15 C-38.92614443 11.40277813 -36.67326359 10.38377814 -32.0625 9.5 C-25.84409154 8.10634938 -22.58044622 6.37066932 -19 1 C-16.0942395 0.80510143 -13.39526508 0.76565501 -10.5 0.875 C-5.09124682 1.30611555 -5.09124682 1.30611555 0 0 Z " fill="#E4DFCA" transform="translate(302,228)"/>
<path d="M0 0 C1.07314453 0.00322266 2.14628906 0.00644531 3.25195312 0.00976562 C4.37150391 0.01814453 5.49105469 0.02652344 6.64453125 0.03515625 C8.34125977 0.04192383 8.34125977 0.04192383 10.07226562 0.04882812 C12.86724052 0.06062127 15.66210945 0.07707975 18.45703125 0.09765625 C18.45703125 0.42765625 18.45703125 0.75765625 18.45703125 1.09765625 C17.86801025 1.14253174 17.27898926 1.18740723 16.67211914 1.23364258 C13.95352962 1.44747619 11.2366763 1.67871599 8.51953125 1.91015625 C7.13024414 2.01553711 7.13024414 2.01553711 5.71289062 2.12304688 C-2.66770121 2.85818651 -10.22082142 4.18338939 -16.54296875 10.09765625 C-15.18528671 5.21000092 -12.87262454 3.57174527 -8.54296875 1.09765625 C-5.42453625 0.05817875 -3.26821289 -0.01729213 0 0 Z " fill="#E5DDC8" transform="translate(242.54296875,195.90234375)"/>
<path d="M0 0 C1.7661028 0.51868628 1.7661028 0.51868628 3.7421875 0.4375 C3.7421875 1.0975 3.7421875 1.7575 3.7421875 2.4375 C-1.56803434 2.6206111 -5.2166909 2.22289723 -10.2578125 0.4375 C-12.9216652 -0.00324654 -15.56988682 -0.28443872 -18.2578125 -0.5625 C-18.2578125 0.0975 -18.2578125 0.7575 -18.2578125 1.4375 C-19.2478125 1.746875 -19.2478125 1.746875 -20.2578125 2.0625 C-23.70408936 3.64204356 -26.41010761 5.68053121 -29.390625 8 C-30.96446735 9.21166106 -32.60517078 10.33573885 -34.2578125 11.4375 C-32.90338964 6.99927819 -31.15538539 5.23295219 -27.3203125 2.6875 C-26.44503906 2.09453125 -25.56976563 1.5015625 -24.66796875 0.890625 C-17.39912313 -3.49188808 -7.89009189 -2.08090335 0 0 Z " fill="#9FBAC2" transform="translate(264.2578125,178.5625)"/>
<path d="M0 0 C0.66 0.33 1.32 0.66 2 1 C-6.14820862 10.36234567 -15.85563878 14.13618817 -28 16 C-31.35486624 16.19759776 -34.64634061 16.20439911 -38 16 C-38 15.34 -38 14.68 -38 14 C-36.69289062 13.96132812 -36.69289062 13.96132812 -35.359375 13.921875 C-21.65322473 13.37600269 -21.65322473 13.37600269 -10 7 C-9.236875 6.731875 -8.47375 6.46375 -7.6875 6.1875 C-4.36547026 4.71962639 -2.44140506 2.65066835 0 0 Z " fill="#A9C0C4" transform="translate(262,239)"/>
<path d="M0 0 C1 3 1 3 1 8 C-3.62 8 -8.24 8 -13 8 C-13.33 6.68 -13.66 5.36 -14 4 C-13.24074219 3.87882812 -12.48148437 3.75765625 -11.69921875 3.6328125 C-10.20841797 3.38144531 -10.20841797 3.38144531 -8.6875 3.125 C-7.70136719 2.96257812 -6.71523438 2.80015625 -5.69921875 2.6328125 C-2.79940173 2.11914546 -2.79940173 2.11914546 0 0 Z " fill="#EEE1C7" transform="translate(297,362)"/>
<path d="M0 0 C0.99 0.495 0.99 0.495 2 1 C2 1.66 2 2.32 2 3 C6.62 3 11.24 3 16 3 C16 3.99 16 4.98 16 6 C14.68 6 13.36 6 12 6 C12 6.66 12 7.32 12 8 C8.37 8 4.74 8 1 8 C0 3 0 3 0 0 Z " fill="#86B9D7" transform="translate(340,317)"/>
<path d="M0 0 C0.99 0.495 0.99 0.495 2 1 C2 3.31 2 5.62 2 8 C4.31 8 6.62 8 9 8 C10.25664978 10.90600261 11 12.79604584 11 16 C7.78548731 17.60725635 4.56387464 17.05748185 1 17 C1 20.96 1 24.92 1 29 C0.67 29 0.34 29 0 29 C0 24.71 0 20.42 0 16 C3.465 15.505 3.465 15.505 7 15 C7 13.02 7 11.04 7 9 C4.69 9 2.38 9 0 9 C0 6.03 0 3.06 0 0 Z " fill="#DCD9C8" transform="translate(322,288)"/>
<path d="M0 0 C0.66 0 1.32 0 2 0 C2.35897436 6.22222222 2.35897436 6.22222222 0.875 9.4375 C-1.75128857 11.6260738 -3.68553637 11.29461899 -7 11 C-7 10.34 -7 9.68 -7 9 C-7.66 8.67 -8.32 8.34 -9 8 C-8.34 8 -7.68 8 -7 8 C-7 5.69 -7 3.38 -7 1 C-6.01 1.33 -5.02 1.66 -4 2 C-3.3125 4.0625 -3.3125 4.0625 -3 6 C-0.8614515 3.8614515 -0.57344937 2.86724686 0 0 Z " fill="#92B8CB" transform="translate(169,292)"/>
<path d="M0 0 C0.33 0 0.66 0 1 0 C1.62589928 8.13669065 1.62589928 8.13669065 -0.8125 11.5 C-3 13 -3 13 -6 14 C-4.68 14.66 -3.36 15.32 -2 16 C-4.99480917 16.8723412 -7.63575911 17.10829766 -10.75 17.0625 C-11.54921875 17.05347656 -12.3484375 17.04445313 -13.171875 17.03515625 C-13.77515625 17.02355469 -14.3784375 17.01195312 -15 17 C-15.33 15.68 -15.66 14.36 -16 13 C-15.16855469 12.89042969 -14.33710938 12.78085937 -13.48046875 12.66796875 C-12.39378906 12.50941406 -11.30710937 12.35085938 -10.1875 12.1875 C-9.10855469 12.03667969 -8.02960938 11.88585937 -6.91796875 11.73046875 C-3.88233833 10.9705452 -2.74852218 10.55189724 -1 8 C-0.42982192 5.95899762 -0.42982192 5.95899762 -0.3125 3.8125 C-0.1578125 1.9253125 -0.1578125 1.9253125 0 0 Z " fill="#E9E0CB" transform="translate(282,302)"/>
<path d="M0 0 C3.125 0.375 3.125 0.375 6 1 C6.33 2.65 6.66 4.3 7 6 C4 8 4 8 1.3125 7.625 C0.549375 7.41875 -0.21375 7.2125 -1 7 C-1.625 4.625 -1.625 4.625 -2 2 C-1.34 1.34 -0.68 0.68 0 0 Z " fill="#9FBAC1" transform="translate(240,335)"/>
<path d="M0 0 C0.99 0.33 1.98 0.66 3 1 C3.62790698 9.1627907 3.62790698 9.1627907 1.125 12.5 C-2.43079944 15.00997607 -4.59518108 15.16118292 -8.9375 15.1875 C-9.99839844 15.20167969 -11.05929687 15.21585937 -12.15234375 15.23046875 C-15 15 -15 15 -18 13 C-18.1875 10.375 -18.1875 10.375 -18 8 C-15.69 8 -13.38 8 -11 8 C-11 8.33 -11 8.66 -11 9 C-12.98 9 -14.96 9 -17 9 C-16.67 9.99 -16.34 10.98 -16 12 C-12.07703567 13.30765478 -9.13997567 13.1971417 -5 13 C-4.34 12.34 -3.68 11.68 -3 11 C-1.68 11 -0.36 11 1 11 C1.020625 9.741875 1.04125 8.48375 1.0625 7.1875 C1.07410156 6.47980469 1.08570313 5.77210938 1.09765625 5.04296875 C1.08263217 2.79694539 1.08263217 2.79694539 0 0 Z " fill="#9CB9C3" transform="translate(305,311)"/>
<path d="M0 0 C3.125 0.375 3.125 0.375 6 1 C6.33 2.65 6.66 4.3 7 6 C4 8 4 8 1.3125 7.625 C0.549375 7.41875 -0.21375 7.2125 -1 7 C-1.625 4.625 -1.625 4.625 -2 2 C-1.34 1.34 -0.68 0.68 0 0 Z " fill="#96B9C9" transform="translate(180,284)"/>
<path d="M0 0 C0.89203125 0.01804687 1.7840625 0.03609375 2.703125 0.0546875 C3.71632813 0.08949219 3.71632813 0.08949219 4.75 0.125 C4.75 0.455 4.75 0.785 4.75 1.125 C4.07453125 1.23457031 3.3990625 1.34414063 2.703125 1.45703125 C1.81109375 1.61558594 0.9190625 1.77414062 0 1.9375 C-0.88171875 2.08832031 -1.7634375 2.23914063 -2.671875 2.39453125 C-5.49872489 3.19547205 -7.11842285 4.11453519 -9.25 6.125 C-10.85224815 12.80103397 -10.97369156 20.4456952 -9.25 27.125 C-10.7265625 26.1484375 -10.7265625 26.1484375 -12.25 24.125 C-12.54932215 21.24329069 -12.66872379 18.62605365 -12.625 15.75 C-12.63660156 14.99460937 -12.64820313 14.23921875 -12.66015625 13.4609375 C-12.63621913 8.89692705 -12.27080338 5.77456789 -9.25 2.125 C-6.19869622 -0.01604088 -3.66787472 -0.09652302 0 0 Z " fill="#9BB8C1" transform="translate(287.25,346.875)"/>
<path d="M0 0 C0 0.33 0 0.66 0 1 C-5.93526674 2.6957905 -9.43646084 3 -16 3 C-16 11.25 -16 19.5 -16 28 C-16.33 28 -16.66 28 -17 28 C-17.19582583 23.68783519 -17.38027074 19.3752591 -17.5625 15.0625 C-17.61857422 13.83080078 -17.67464844 12.59910156 -17.73242188 11.33007812 C-17.78076172 10.16025391 -17.82910156 8.99042969 -17.87890625 7.78515625 C-17.9260376 6.70113525 -17.97316895 5.61711426 -18.02172852 4.50024414 C-18 2 -18 2 -17 1 C-14.66666667 1 -12.33333333 1 -10 1 C-6.78548731 -0.60725635 -3.56387464 -0.05748185 0 0 Z " fill="#A4BABD" transform="translate(244,296)"/>
<path d="M0 0 C0.33 0 0.66 0 1 0 C1.33 2.97 1.66 5.94 2 9 C1.34 9 0.68 9 0 9 C-0.33 10.65 -0.66 12.3 -1 14 C-6.02125926 14.77916092 -9.97703996 15.13016601 -15 14 C-15 13.34 -15 12.68 -15 12 C-11.04 12 -7.08 12 -3 12 C-2.67 10.35 -2.34 8.7 -2 7 C-4.31 6.67 -6.62 6.34 -9 6 C-9 5.67 -9 5.34 -9 5 C-6.03 5.33 -3.06 5.66 0 6 C0 4.02 0 2.04 0 0 Z " fill="#EAE1C9" transform="translate(273,364)"/>
<path d="M0 0 C2.78784376 1.08909395 4.37761791 2.14579764 6.02734375 4.65625 C6.21296875 5.254375 6.39859375 5.8525 6.58984375 6.46875 C4.56938933 5.86691251 2.56873336 5.19568904 0.58984375 4.46875 C0.25984375 3.80875 -0.07015625 3.14875 -0.41015625 2.46875 C-6.35015625 2.46875 -12.29015625 2.46875 -18.41015625 2.46875 C-18.41015625 1.80875 -18.41015625 1.14875 -18.41015625 0.46875 C-13.37862361 -2.04701632 -5.38393668 -1.18673483 0 0 Z " fill="#A8C0C6" transform="translate(190.41015625,335.53125)"/>
<path d="M0 0 C0.33 0 0.66 0 1 0 C1.42560664 3.10084841 1.599374 5.91529069 1 9 C-1.7542981 12.17632764 -5.06781959 13.6892732 -9 15 C-10.48123547 15.0806622 -11.96582204 15.10761193 -13.44921875 15.09765625 C-14.29677734 15.09443359 -15.14433594 15.09121094 -16.01757812 15.08789062 C-16.89865234 15.07951172 -17.77972656 15.07113281 -18.6875 15.0625 C-19.58017578 15.05798828 -20.47285156 15.05347656 -21.39257812 15.04882812 C-23.59511987 15.03704983 -25.79752599 15.02060164 -28 15 C-28.33 13.68 -28.66 12.36 -29 11 C-28.67 11.66 -28.34 12.32 -28 13 C-25.12442297 13.08138426 -22.25117738 13.14067851 -19.375 13.1875 C-18.56675781 13.21263672 -17.75851563 13.23777344 -16.92578125 13.26367188 C-11.83290186 13.32578016 -8.42718354 12.80547952 -4 10 C-0.97136345 6.97136345 -0.47675503 4.19544425 0 0 Z " fill="#E5DFCB" transform="translate(172,312)"/>
<path d="M0 0 C0 0.99 0 1.98 0 3 C-3.06246747 4.78409802 -5.22079273 5.22880021 -8.75 5.125 C-9.54921875 5.10695313 -10.3484375 5.08890625 -11.171875 5.0703125 C-11.77515625 5.04710937 -12.3784375 5.02390625 -13 5 C-13.33 4.01 -13.66 3.02 -14 2 C-12.4176994 1.66179834 -10.83410625 1.32964061 -9.25 1 C-8.36828125 0.814375 -7.4865625 0.62875 -6.578125 0.4375 C-4 0 -4 0 0 0 Z " fill="#88BAD5" transform="translate(296,371)"/>
<path d="M0 0 C0.66 0 1.32 0 2 0 C1.8125 2.875 1.8125 2.875 1 6 C-1.5 7.3125 -1.5 7.3125 -4 8 C-4.33 8.33 -4.66 8.66 -5 9 C-7.33297433 9.04092937 -9.66705225 9.04241723 -12 9 C-11.34 7.68 -10.68 6.36 -10 5 C-8.9171875 5.1546875 -8.9171875 5.1546875 -7.8125 5.3125 C-3.88801947 4.87644661 -2.61343531 2.82533547 0 0 Z " fill="#86BAD8" transform="translate(305,316)"/>
<path d="M0 0 C2.4375 0.1875 2.4375 0.1875 3.4375 1.1875 C3.47813832 2.85367115 3.480221 4.52138095 3.4375 6.1875 C0.72870665 7.54189668 -1.57183268 7.25251451 -4.5625 7.1875 C-4.6875 4.8125 -4.6875 4.8125 -4.5625 2.1875 C-2.5625 0.1875 -2.5625 0.1875 0 0 Z " fill="#E2DCC7" transform="translate(270.5625,301.8125)"/>
<path d="M0 0 C1.18771723 3.42943519 0.80226223 5.37784675 -0.4375 8.75 C-0.72496094 9.54921875 -1.01242188 10.3484375 -1.30859375 11.171875 C-1.53675781 11.77515625 -1.76492187 12.3784375 -2 13 C-1.01 12.67 -0.02 12.34 1 12 C1.33 11.34 1.66 10.68 2 10 C2.99 10.33 3.98 10.66 5 11 C3.54634731 12.17249353 2.08692581 13.33783816 0.625 14.5 C-0.18710938 15.1496875 -0.99921875 15.799375 -1.8359375 16.46875 C-4 18 -4 18 -6 18 C-4 12 -2 6 0 0 Z " fill="#A8BEC2" transform="translate(213,251)"/>
<path d="M0 0 C0.99 0 1.98 0 3 0 C3 0.66 3 1.32 3 2 C-0.06246747 3.78409802 -2.22079273 4.22880021 -5.75 4.125 C-6.54921875 4.10695313 -7.3484375 4.08890625 -8.171875 4.0703125 C-8.77515625 4.04710937 -9.3784375 4.02390625 -10 4 C-9.625 2.0625 -9.625 2.0625 -9 0 C-5.93652871 -1.53173564 -3.31441515 -0.52332871 0 0 Z " fill="#87B9D5" transform="translate(277,321)"/>
<path d="M0 0 C0.99 0.33 1.98 0.66 3 1 C4.64371491 1.09329934 6.29114677 1.12995144 7.9375 1.125 C8.79214844 1.12757813 9.64679688 1.13015625 10.52734375 1.1328125 C12.9701254 1.08556022 12.9701254 1.08556022 15.14453125 0.43359375 C17.85260333 -0.19923994 19.55127816 0.84365913 22 2 C22 2.66 22 3.32 22 4 C18.89591193 4.05807043 15.7919636 4.09361914 12.6875 4.125 C11.36588867 4.15013672 11.36588867 4.15013672 10.01757812 4.17578125 C9.17001953 4.18222656 8.32246094 4.18867188 7.44921875 4.1953125 C6.66893311 4.20578613 5.88864746 4.21625977 5.0847168 4.22705078 C3 4 3 4 0 2 C0 1.34 0 0.68 0 0 Z " fill="#E7E0CB" transform="translate(208,375)"/>
<path d="M0 0 C1.32 0.33 2.64 0.66 4 1 C3.67 2.65 3.34 4.3 3 6 C0.69 6 -1.62 6 -4 6 C-3.67 10.29 -3.34 14.58 -3 19 C-1.02 19.66 0.96 20.32 3 21 C3 21.33 3 21.66 3 22 C0.66705225 22.04241723 -1.66702567 22.04092937 -4 22 C-5 21 -5 21 -5.09765625 17.40234375 C-5.0909822 15.91403133 -5.07902183 14.42573568 -5.0625 12.9375 C-5.05798828 12.17888672 -5.05347656 11.42027344 -5.04882812 10.63867188 C-5.0370068 8.75908129 -5.01907078 6.87953101 -5 5 C-2.69 5 -0.38 5 2 5 C1.34 3.35 0.68 1.7 0 0 Z " fill="#98B7C5" transform="translate(266,349)"/>
<path d="M0 0 C0.78375 0.04125 1.5675 0.0825 2.375 0.125 C2.41754356 2.12454746 2.41580783 4.12541636 2.375 6.125 C1.375 7.125 1.375 7.125 -1.6875 7.1875 C-3.1415625 7.1565625 -3.1415625 7.1565625 -4.625 7.125 C-4.75 4.75 -4.75 4.75 -4.625 2.125 C-2.625 0.125 -2.625 0.125 0 0 Z " fill="#E6DEC7" transform="translate(287.625,352.875)"/>
<path d="M0 0 C1 1 1 1 1.09765625 3.06640625 C1.08605469 3.89011719 1.07445312 4.71382813 1.0625 5.5625 C1.05347656 6.38878906 1.04445312 7.21507812 1.03515625 8.06640625 C1.02355469 8.70449219 1.01195312 9.34257812 1 10 C-2.06246747 11.78409802 -4.22079273 12.22880021 -7.75 12.125 C-8.54921875 12.10695313 -9.3484375 12.08890625 -10.171875 12.0703125 C-10.77515625 12.04710937 -11.3784375 12.02390625 -12 12 C-12 11.67 -12 11.34 -12 11 C-10.01432292 10.77213542 -8.02864583 10.54427083 -6.04296875 10.31640625 C-3.80603607 10.02829265 -3.80603607 10.02829265 -1 9 C-1.33 6.69 -1.66 4.38 -2 2 C-5.3 1.34 -8.6 0.68 -12 0 C-12 -0.33 -12 -0.66 -12 -1 C-7.29667924 -1.92221976 -4.29790661 -2.27536232 0 0 Z " fill="#94B9C9" transform="translate(192,359)"/>
<path d="M0 0 C5.75 -0.125 5.75 -0.125 8 1 C8.042721 2.66611905 8.04063832 4.33382885 8 6 C6.35962605 7.64037395 4.50523159 7.24911331 2.25 7.3125 C-1.49721708 7.28565747 -2.81696075 7.10982355 -6.125 5.125 C-8 3 -8 3 -8 1 C-7.34 1 -6.68 1 -6 1 C-5.67 1.66 -5.34 2.32 -5 3 C-3.68 3 -2.36 3 -1 3 C-1 3.66 -1 4.32 -1 5 C0.98 5 2.96 5 5 5 C5.33 4.01 5.66 3.02 6 2 C3.03 1.505 3.03 1.505 0 1 C0 0.67 0 0.34 0 0 Z " fill="#A0BAC2" transform="translate(323,319)"/>
<path d="M0 0 C3 1.875 3 1.875 4 5.0625 C4 5.990625 4 6.91875 4 7.875 C3.52949219 7.45347656 3.05898437 7.03195312 2.57421875 6.59765625 C1.95160156 6.04980469 1.32898438 5.50195312 0.6875 4.9375 C0.07261719 4.39222656 -0.54226562 3.84695313 -1.17578125 3.28515625 C-4.92486497 0.38704228 -8.97850125 0.65944951 -13.5 0.625 C-14.17675781 0.604375 -14.85351562 0.58375 -15.55078125 0.5625 C-19.55143468 0.51588433 -19.55143468 0.51588433 -22.96875 2.390625 C-23.3090625 2.88046875 -23.649375 3.3703125 -24 3.875 C-24 2.555 -24 1.235 -24 -0.125 C-18.08468026 -3.08265987 -6.25638372 -1.9479583 0 0 Z " fill="#EAE0CA" transform="translate(167,284.125)"/>
<path d="M0 0 C1.66611905 -0.042721 3.33382885 -0.04063832 5 0 C6 1 6 1 6.0625 3.5625 C6.041875 4.366875 6.02125 5.17125 6 6 C3.69 6.33 1.38 6.66 -1 7 C-0.67 4.69 -0.34 2.38 0 0 Z " fill="#E7DEC8" transform="translate(344,302)"/>
<path d="M0 0 C2.475 0.495 2.475 0.495 5 1 C5 9.91 5 18.82 5 28 C4.01 27.67 3.02 27.34 2 27 C2.33 26.67 2.66 26.34 3 26 C3.27986267 22.77945916 3.23185967 19.54374715 3.25 16.3125 C3.270625 15.41337891 3.29125 14.51425781 3.3125 13.58789062 C3.34372231 8.26839023 2.92136923 4.6357517 0 0 Z " fill="#EAE1CA" transform="translate(248,298)"/>
<path d="M0 0 C1.35358503 2.70717007 0.95126377 4.73470068 0.8125 7.75 C0.73165942 13.37515703 1.57159147 15.68684088 5 20 C4.67 20.99 4.34 21.98 4 23 C3.18278283 21.89932004 2.37140549 20.79430269 1.5625 19.6875 C1.11003906 19.07261719 0.65757812 18.45773438 0.19140625 17.82421875 C-1.80165266 14.77255151 -2.15753044 12.11689037 -2.1875 8.5625 C-2.20167969 7.80066406 -2.21585938 7.03882813 -2.23046875 6.25390625 C-1.97612666 3.76652685 -1.24017196 2.15191894 0 0 Z " fill="#E3DFCC" transform="translate(225,206)"/>
<path d="M0 0 C0.99 0.33 1.98 0.66 3 1 C2.566875 2.0209375 2.566875 2.0209375 2.125 3.0625 C0.90374133 6.09749857 0.90374133 6.09749857 0 9.75 C-0.33 10.8225 -0.66 11.895 -1 13 C-3.9615696 14.4807848 -6.83506295 14.35314037 -10.125 14.5625 C-11.40632812 14.64628906 -12.68765625 14.73007813 -14.0078125 14.81640625 C-14.99523437 14.87699219 -15.98265625 14.93757812 -17 15 C-16.67 14.34 -16.34 13.68 -16 13 C-12.83984375 12.5859375 -12.83984375 12.5859375 -8.9375 12.375 C-7.64714844 12.30023438 -6.35679687 12.22546875 -5.02734375 12.1484375 C-4.02832031 12.09945312 -3.02929688 12.05046875 -2 12 C-1.855625 10.948125 -1.71125 9.89625 -1.5625 8.8125 C-1.12473034 5.84539451 -0.62195134 2.93205634 0 0 Z " fill="#E8DFC8" transform="translate(229,184)"/>
<path d="M0 0 C0.91078492 2.55019778 1.17843392 3.59554978 0.0625 6.125 C-0.288125 6.74375 -0.63875 7.3625 -1 8 C-1 8.66 -1 9.32 -1 10 C-3.64 10 -6.28 10 -9 10 C-8.67 9.01 -8.34 8.02 -8 7 C-8.38932856 4.85744207 -8.38932856 4.85744207 -9 3 C-7.576875 3.2784375 -7.576875 3.2784375 -6.125 3.5625 C-3.10131207 4.28686632 -3.10131207 4.28686632 -1 3 C-0.67 2.01 -0.34 1.02 0 0 Z " fill="#EBE0C9" transform="translate(247,338)"/>
<path d="M0 0 C3.65316671 1.24976756 4.78065836 1.67098753 7 5 C7.4375 8.375 7.4375 8.375 7 12 C4.625 14.9375 4.625 14.9375 2 17 C1.34 17 0.68 17 0 17 C0.495 15.515 0.495 15.515 1 14 C1.99 14 2.98 14 4 14 C4 10.37 4 6.74 4 3 C2.68 2.34 1.36 1.68 0 1 C0 0.67 0 0.34 0 0 Z " fill="#A0BBC1" transform="translate(292,348)"/>
<path d="M0 0 C0.33 0 0.66 0 1 0 C1.33 7.26 1.66 14.52 2 22 C-4.75 24.25 -4.75 24.25 -8 23 C-8 22.67 -8 22.34 -8 22 C-4.535 21.505 -4.535 21.505 -1 21 C-0.67 14.07 -0.34 7.14 0 0 Z " fill="#D8DACD" transform="translate(235,304)"/>
<path d="M0 0 C0.66 0.33 1.32 0.66 2 1 C0.625 3 0.625 3 -1 5 C-1.66 5 -2.32 5 -3 5 C-2.57694334 7.7498683 -2.29081652 9.58875473 -1 12 C1.5054155 13.77424322 4.13228206 14.92627305 7 16 C7 16.66 7 17.32 7 18 C2.03859422 16.73080317 -0.88625668 15.12113087 -4 11 C-4.5625 7.4375 -4.5625 7.4375 -4 4 C-2 1.5625 -2 1.5625 0 0 Z " fill="#9FB9C1" transform="translate(291,297)"/>
<path d="M0 0 C2.97 0 5.94 0 9 0 C9 0.66 9 1.32 9 2 C10.32 2.33 11.64 2.66 13 3 C9.0186217 4.3271261 5.14954773 4.06915913 1 4 C0.67 2.68 0.34 1.36 0 0 Z " fill="#EDE3C8" transform="translate(343,315)"/>
<path d="M0 0 C0.33 0 0.66 0 1 0 C1.33 5.28 1.66 10.56 2 16 C3.32 16.33 4.64 16.66 6 17 C6 14.69 6 12.38 6 10 C6.33 10 6.66 10 7 10 C7.09765625 16.15234375 7.09765625 16.15234375 7 18 C6.67 18.33 6.34 18.66 6 19 C4.02 19 2.04 19 0 19 C0 12.73 0 6.46 0 0 Z " fill="#97B7C2" transform="translate(305,358)"/>
<path d="M0 0 C2.62901288 1.52206009 4.84365964 2.84365964 7 5 C7.35173852 8.79877599 7.52701444 11.14360153 5.5 14.4375 C5.005 14.953125 4.51 15.46875 4 16 C3.67 14.02 3.34 12.04 3 10 C3.99 10 4.98 10 6 10 C6 9.34 6 8.68 6 8 C5.01 7.67 4.02 7.34 3 7 C2.6278958 5.67696283 2.29369827 4.34262065 2 3 C1.34 2.67 0.68 2.34 0 2 C0 1.34 0 0.68 0 0 Z " fill="#9EBCCA" transform="translate(193,356)"/>
<path d="M0 0 C0.33 0 0.66 0 1 0 C0.98839844 0.61488281 0.97679687 1.22976563 0.96484375 1.86328125 C0.95582031 2.67152344 0.94679687 3.47976563 0.9375 4.3125 C0.92589844 5.11300781 0.91429687 5.91351563 0.90234375 6.73828125 C0.90342145 9.16861334 0.90342145 9.16861334 2 12 C1.0625 14.1875 1.0625 14.1875 0 16 C-1.65 15.01 -3.3 14.02 -5 13 C-4.360625 12.154375 -3.72125 11.30875 -3.0625 10.4375 C-0.8033727 7.09271435 -0.32208241 4.02603008 0 0 Z " fill="#E9E0CA" transform="translate(171,292)"/>
<path d="M0 0 C2.31 0 4.62 0 7 0 C5.19085422 1.85256528 3.73668214 2.9217479 1.12451172 3.19921875 C-1.11010055 3.18691531 -3.33069384 3.11300284 -5.5625 3 C-11.09801199 2.47259035 -11.09801199 2.47259035 -16.02734375 4.5 C-16.50880859 5.2425 -16.50880859 5.2425 -17 6 C-16.125 2.125 -16.125 2.125 -15 1 C-12.46458702 1.09086451 -9.96445216 1.2370945 -7.4375 1.4375 C-6.37112305 1.51581055 -6.37112305 1.51581055 -5.28320312 1.59570312 C-3.52178001 1.72574107 -1.76083827 1.86226897 0 2 C0 1.34 0 0.68 0 0 Z " fill="#9AB9C4" transform="translate(297,227)"/>
<path d="M0 0 C0.33 0 0.66 0 1 0 C1 2.31 1 4.62 1 7 C3.31 7 5.62 7 8 7 C8.38133299 8.9914056 8.71325582 10.99279077 9 13 C8 14 8 14 5.4375 14.0625 C4.633125 14.041875 3.82875 14.02125 3 14 C4.32 13.67 5.64 13.34 7 13 C7 12.01 7 11.02 7 10 C5.68 10 4.36 10 3 10 C3 9.34 3 8.68 3 8 C2.01 8 1.02 8 0 8 C0 5.36 0 2.72 0 0 Z " fill="#9BB9C4" transform="translate(321,290)"/>
<path d="M0 0 C0.66 0 1.32 0 2 0 C2 1.98 2 3.96 2 6 C3.65 6 5.3 6 7 6 C7.33 7.32 7.66 8.64 8 10 C5.36 9.67 2.72 9.34 0 9 C0 6.03 0 3.06 0 0 Z " fill="#DCD9CB" transform="translate(262,340)"/>
<path d="M0 0 C5.94 2.475 5.94 2.475 12 5 C11.25 12.75 11.25 12.75 9 15 C9.33 12.03 9.66 9.06 10 6 C8.9171875 5.8453125 8.9171875 5.8453125 7.8125 5.6875 C4.72206579 4.93206053 2.58256159 3.84468685 0 2 C0 1.34 0 0.68 0 0 Z " fill="#EBE2CC" transform="translate(200,247)"/>
<path d="M0 0 C1.65 0 3.3 0 5 0 C5.66 1.65 6.32 3.3 7 5 C5.25 5.6875 5.25 5.6875 3 6 C0.75 4.5625 0.75 4.5625 -1 3 C-0.67 2.01 -0.34 1.02 0 0 Z " fill="#98B8C4" transform="translate(290,171)"/>
<path d="M0 0 C1.65 0 3.3 0 5 0 C2.78221995 2.55044706 1.29459529 3.36935264 -2 4 C-4.75970408 4.06926968 -7.49196042 4.0941736 -10.25 4.0625 C-10.99507812 4.05798828 -11.74015625 4.05347656 -12.5078125 4.04882812 C-14.3385764 4.03709246 -16.16929873 4.0191585 -18 4 C-18.33 3.34 -18.66 2.68 -19 2 C-12.73 2 -6.46 2 0 2 C0 1.34 0 0.68 0 0 Z " fill="#A0B8BC" transform="translate(191,373)"/>
<path d="M0 0 C0.33 0 0.66 0 1 0 C1 6.93 1 13.86 1 21 C-4 22 -4 22 -7 20 C-5.02 19.67 -3.04 19.34 -1 19 C-0.67 12.73 -0.34 6.46 0 0 Z " fill="#98B9C8" transform="translate(222,350)"/>
<path d="M0 0 C0.66 0.33 1.32 0.66 2 1 C1.67 1.99 1.34 2.98 1 4 C0.6978212 8.74598472 0.80690465 13.37675552 2 18 C-0.73332858 15.50435216 -1.87240246 13.63799638 -2.16796875 9.84375 C-2.17441406 9.0703125 -2.18085938 8.296875 -2.1875 7.5 C-2.20167969 6.7265625 -2.21585938 5.953125 -2.23046875 5.15625 C-2 3 -2 3 0 0 Z " fill="#96B7C5" transform="translate(223,206)"/>
<path d="M0 0 C2 2 2 2 2.22705078 4.24658203 C2.21657715 5.15778809 2.20610352 6.06899414 2.1953125 7.0078125 C2.18886719 7.99394531 2.18242187 8.98007813 2.17578125 9.99609375 C2.15902344 11.02863281 2.14226562 12.06117188 2.125 13.125 C2.11597656 14.16527344 2.10695313 15.20554688 2.09765625 16.27734375 C2.07403747 18.85179092 2.04110149 21.42578212 2 24 C1.67 24 1.34 24 1 24 C-0.53540342 19.39378975 -0.99006363 16.67530046 0 12 C0.0659735 9.89676466 0.08562245 7.79164276 0.0625 5.6875 C0.05347656 4.61886719 0.04445313 3.55023438 0.03515625 2.44921875 C0.02355469 1.64097656 0.01195312 0.83273438 0 0 Z " fill="#9BB8C4" transform="translate(312,194)"/>
<path d="M0 0 C1.45839897 3.95705456 0.67906093 7.69831388 0.0625 11.75 C-0.03740234 12.44738281 -0.13730469 13.14476562 -0.24023438 13.86328125 C-0.48665873 15.57651726 -0.74240955 17.28840725 -1 19 C-1.33 19 -1.66 19 -2 19 C-2.05394705 16.39555652 -2.09364469 13.79223002 -2.125 11.1875 C-2.14175781 10.44951172 -2.15851563 9.71152344 -2.17578125 8.95117188 C-2.21074628 5.08753574 -2.19397555 3.29096332 0 0 Z " fill="#A6C1C7" transform="translate(336,300)"/>
<path d="M0 0 C0 3.50051525 -0.52511319 4.0126916 -2.75 6.5625 C-3.26046875 7.16191406 -3.7709375 7.76132812 -4.296875 8.37890625 C-6.08620137 10.08204947 -7.74733705 11.01568423 -10 12 C-10.66 11.34 -11.32 10.68 -12 10 C-11.38511719 9.52949219 -10.77023438 9.05898438 -10.13671875 8.57421875 C-9.32847656 7.95160156 -8.52023438 7.32898438 -7.6875 6.6875 C-6.88699219 6.07261719 -6.08648437 5.45773437 -5.26171875 4.82421875 C-3.37298626 3.30083693 -1.66922364 1.75565593 0 0 Z " fill="#E9DFC8" transform="translate(221,258)"/>
<path d="M0 0 C2.475 0.495 2.475 0.495 5 1 C5 1.66 5 2.32 5 3 C6.65 3 8.3 3 10 3 C10.33 3.99 10.66 4.98 11 6 C11.99 6 12.98 6 14 6 C14 6.66 14 7.32 14 8 C7.96719209 6.3833652 4.049191 4.83290538 0 0 Z " fill="#A6C0C6" transform="translate(198,244)"/>
<path d="M0 0 C3.39393978 1.40438887 5.08345227 2.86383098 7 6 C7.29296875 8.578125 7.29296875 8.578125 7.1875 11.25 C7.16042969 12.14203125 7.13335937 13.0340625 7.10546875 13.953125 C7.07066406 14.62859375 7.03585938 15.3040625 7 16 C6.01 16 5.02 16 4 16 C4.33 15.34 4.66 14.68 5 14 C5.58414702 10.62693382 5.58414702 10.62693382 5 7 C3.18128269 4.86844211 1.34012057 3.60883289 -1 2 C-0.67 1.34 -0.34 0.68 0 0 Z " fill="#E4DFCB" transform="translate(194,354)"/>
<path d="M0 0 C1.73169596 3.1622274 2.7128976 6.26742722 3.625 9.75 C3.88539063 10.73484375 4.14578125 11.7196875 4.4140625 12.734375 C4.60742188 13.48203125 4.80078125 14.2296875 5 15 C4.01 15 3.02 15 2 15 C0.2520497 9.75614911 -0.19392201 5.52677733 0 0 Z " fill="#EAE0C9" transform="translate(187,224)"/>
<path d="M0 0 C1.67542976 0.28604898 3.34385343 0.61781233 5 1 C5 2.32 5 3.64 5 5 C3.35 5 1.7 5 0 5 C-0.5625 3.0625 -0.5625 3.0625 -1 1 C-0.67 0.67 -0.34 0.34 0 0 Z " fill="#9CBAC3" transform="translate(238,213)"/>
<path d="M0 0 C1.65 0.33 3.3 0.66 5 1 C4.67 2.32 4.34 3.64 4 5 C2.35 4.67 0.7 4.34 -1 4 C-0.67 2.68 -0.34 1.36 0 0 Z " fill="#9CB8BF" transform="translate(248,213)"/>
<path d="M0 0 C1.65 0.33 3.3 0.66 5 1 C4.67 2.32 4.34 3.64 4 5 C2.35 4.67 0.7 4.34 -1 4 C-0.67 2.68 -0.34 1.36 0 0 Z " fill="#9CB7C1" transform="translate(258,213)"/>
<path d="M0 0 C1.98 0 3.96 0 6 0 C6 1.32 6 2.64 6 4 C4.35 4 2.7 4 1 4 C0.67 2.68 0.34 1.36 0 0 Z " fill="#88BAD6" transform="translate(239,337)"/>
<path d="M0 0 C2.97 0.33 5.94 0.66 9 1 C11.125 5.625 11.125 5.625 10 9 C9.46375 8.05125 8.9275 7.1025 8.375 6.125 C5.7207791 2.63260408 4.19162145 1.95264124 0 1 C0 0.67 0 0.34 0 0 Z " fill="#E8E1CA" transform="translate(188,335)"/>
<path d="M0 0 C0.99 0.33 1.98 0.66 3 1 C2.67 2.65 2.34 4.3 2 6 C-1.3 6.33 -4.6 6.66 -8 7 C-8 6.34 -8 5.68 -8 5 C-5.03 5 -2.06 5 1 5 C0.01 3.68 -0.98 2.36 -2 1 C-1.34 0.67 -0.68 0.34 0 0 Z " fill="#F1E2C5" transform="translate(286,168)"/>
<path d="M0 0 C0.33 1.32 0.66 2.64 1 4 C0.34 4 -0.32 4 -1 4 C-1.433125 4.928125 -1.433125 4.928125 -1.875 5.875 C-3 8 -3 8 -5 10 C-7.125 9.625 -7.125 9.625 -9 9 C-8.071875 8.443125 -7.14375 7.88625 -6.1875 7.3125 C-3.0580593 5.04212145 -1.70245949 3.40491897 0 0 Z " fill="#E3DFCD" transform="translate(313,218)"/>
<path d="M0 0 C0 1.32 0 2.64 0 4 C-2.64 3.67 -5.28 3.34 -8 3 C-7.67 2.34 -7.34 1.68 -7 1 C-4.61370553 0.38812962 -2.46459429 0 0 0 Z " fill="#84BBD9" transform="translate(276,309)"/>
<path d="M0 0 C0.66 0.33 1.32 0.66 2 1 C1.0234375 2.69270833 0.046875 4.38541667 -0.9296875 6.078125 C-2.01399882 8.02513657 -3.01764857 9.99989709 -4 12 C-3.91253716 10.56138706 -3.80434652 9.12402492 -3.6875 7.6875 C-3.62949219 6.88699219 -3.57148438 6.08648437 -3.51171875 5.26171875 C-2.91793306 2.63727666 -2.04219706 1.69179328 0 0 Z " fill="#E8E1CC" transform="translate(192,211)"/>
<path d="M0 0 C2.33944736 0.28730055 4.6739143 0.61936779 7 1 C7 1.33 7 1.66 7 2 C5.02 2 3.04 2 1 2 C0.67 3.32 0.34 4.64 0 6 C-0.38218767 4.34385343 -0.71395102 2.67542976 -1 1 C-0.67 0.67 -0.34 0.34 0 0 Z " fill="#A1BAC2" transform="translate(304,348)"/>
<path d="M0 0 C0.33 0.99 0.66 1.98 1 3 C0 4 0 4 -2.94140625 4.09765625 C-4.73384766 4.08025391 -4.73384766 4.08025391 -6.5625 4.0625 C-8.35880859 4.04896484 -8.35880859 4.04896484 -10.19140625 4.03515625 C-11.11824219 4.02355469 -12.04507812 4.01195312 -13 4 C-13 3.67 -13 3.34 -13 3 C-11.96939453 2.92652344 -11.96939453 2.92652344 -10.91796875 2.8515625 C-9.56638672 2.73941406 -9.56638672 2.73941406 -8.1875 2.625 C-7.29417969 2.55539062 -6.40085937 2.48578125 -5.48046875 2.4140625 C-2.75601501 2.13354964 -2.75601501 2.13354964 0 0 Z " fill="#E4DDC7" transform="translate(357,323)"/>
<path d="M0 0 C2.4375 1.1875 2.4375 1.1875 5 3 C5.8125 5.6875 5.8125 5.6875 6 8 C5.01 7.67 4.02 7.34 3 7 C2.6278958 5.67696283 2.29369827 4.34262065 2 3 C1.34 2.67 0.68 2.34 0 2 C0 1.34 0 0.68 0 0 Z " fill="#93B8C7" transform="translate(193,356)"/>
<path d="M0 0 C4.67692308 1.47692308 4.67692308 1.47692308 6.3125 4.125 C6.539375 4.74375 6.76625 5.3625 7 6 C4.0625 5.25 4.0625 5.25 1 4 C0.125 1.875 0.125 1.875 0 0 Z " fill="#9DBBC7" transform="translate(190,336)"/>
<path d="M0 0 C1.65 0 3.3 0 5 0 C4.01 0.66 3.02 1.32 2 2 C2.7763932 5.0745356 2.7763932 5.0745356 5 7 C0.25 6.25 0.25 6.25 -2 4 C-1.34 4 -0.68 4 0 4 C0 2.68 0 1.36 0 0 Z " fill="#DFDECB" transform="translate(288,170)"/>
<path d="M0 0 C2.79828356 0.38597015 3.8205884 0.80136573 5.75 2.9375 C7 5 7 5 7 7 C6.34 7 5.68 7 5 7 C4.34 5.35 3.68 3.7 3 2 C2.01 2 1.02 2 0 2 C0 1.34 0 0.68 0 0 Z " fill="#A4BCC0" transform="translate(212,297)"/>
<path d="M0 0 C0 0.33 0 0.66 0 1 C-4.53701494 2.45184478 -8.18061476 3.23509196 -13 3 C-8.16353702 -0.22430866 -5.73060016 -0.09242903 0 0 Z " fill="#9CBAC3" transform="translate(212,296)"/>
<path d="M0 0 C2.475 0.495 2.475 0.495 5 1 C5 1.99 5 2.98 5 4 C3.35 3.67 1.7 3.34 0 3 C0 2.01 0 1.02 0 0 Z " fill="#A7BAB7" transform="translate(298,169)"/>
<path d="M0 0 C0.99 0 1.98 0 3 0 C3 1.32 3 2.64 3 4 C1.35 4 -0.3 4 -2 4 C-1.34 2.68 -0.68 1.36 0 0 Z " fill="#80BBDD" transform="translate(242,370)"/>
<path d="M0 0 C-0.33 0.99 -0.66 1.98 -1 3 C-4.63 3 -8.26 3 -12 3 C-12 2.67 -12 2.34 -12 2 C-10.37548581 1.66430703 -8.75037083 1.3315204 -7.125 1 C-6.22007812 0.814375 -5.31515625 0.62875 -4.3828125 0.4375 C-2 0 -2 0 0 0 Z " fill="#DAD9C9" transform="translate(306,324)"/>
<path d="M0 0 C2.375 0.6875 2.375 0.6875 5 2 C6.3125 4.625 6.3125 4.625 7 7 C1.125 3.375 1.125 3.375 0 0 Z " fill="#E6DFCB" transform="translate(267,199)"/>
</svg>
